<?xml version="1.0" encoding="UTF-8" standalone="no"?>
<svg width="101px" height="25px" viewBox="0 0 101 25" version="1.1" xmlns="http://www.w3.org/2000/svg" xmlns:xlink="http://www.w3.org/1999/xlink">
    <!-- Generator: Sketch 44.1 (41455) - http://www.bohemiancoding.com/sketch -->
    <title>Group 3</title>
    <desc>Created with Sketch.</desc>
    <defs>
        <polygon id="path-1" points="1.19331744e-05 0 24.9917661 0 24.9917661 25.1118556 1.19331744e-05 25.1118556 1.19331744e-05 3.3916121e-15"></polygon>
    </defs>
    <g id="Page-1" stroke="none" stroke-width="1" fill="none" fill-rule="evenodd">
        <g id="Group-3">
            <g id="Group-2" fill="#FFFFFF">
                <path d="M11.5050745,-1.77635684e-15 C5.15093604,-1.77635684e-15 -7.95807864e-13,4.81662107 -7.95807864e-13,10.7583135 L-7.95807864e-13,10.7583135 C-7.95807864e-13,14.138333 1.66701786,17.154376 4.27417744,19.1266271 L4.27417744,19.1266271 L4.27417744,23.2440452 L8.2004519,21.0662339 C9.24714358,21.3592048 10.3564727,21.5167098 11.5050745,21.5167098 L11.5050745,21.5167098 C17.8591302,21.5167098 23.0100662,16.7000059 23.0100662,10.7583135 L23.0100662,10.7583135 C23.0100662,4.81662107 17.8591302,-1.77635684e-15 11.5050745,-1.77635684e-15 Z M18.9994466,7.75958699 L12.7167281,14.4266642 L9.74120061,11.3354729 L4.01070245,14.5045467 L10.2933381,7.83746953 L13.2690313,10.9287437 L18.9994466,7.75958699 Z" id="Page-1"></path>
            </g>
            <g id="Page-1" transform="translate(38.000000, 0.000000)">
                <mask id="mask-2" fill="white">
                    <use xlink:href="#path-1"></use>
                </mask>
                <g id="Clip-2"></g>
                <path d="M17.7653157,14.8499164 C17.4791598,14.7067011 16.0722676,14.0145124 15.8099443,13.9189074 C15.5476759,13.8234123 15.3569052,13.7757471 15.1661346,14.0621227 C14.975364,14.3485532 14.4269396,14.9931866 14.2600016,15.1841768 C14.0931185,15.3751122 13.9261805,15.3991095 13.6400245,15.2557845 C13.3538686,15.1125692 12.4318106,14.8104333 11.3388058,13.8354384 C10.4881358,13.0766392 9.91379211,12.1395897 9.746909,11.8531043 C9.57997098,11.5666189 9.72906201,11.4117619 9.87233218,11.2690958 C10.0011051,11.1408171 10.158543,10.9348353 10.3015935,10.7677326 C10.444699,10.6006847 10.4923642,10.4812471 10.5877495,10.2903667 C10.6831348,10.0993215 10.6354696,9.93227364 10.563862,9.78905838 C10.4923642,9.64584313 9.92005229,8.23724864 9.68161647,7.66422288 C9.44933099,7.10629843 9.2134212,7.18185986 9.03775188,7.17301873 C8.87103351,7.16472674 8.68004323,7.1629695 8.48932752,7.1629695 C8.2985569,7.1629695 7.98851345,7.23457713 7.72619011,7.52100763 C7.46392169,7.80749305 6.72467179,8.49984654 6.72467179,9.90827629 C6.72467179,11.3168708 7.75002271,12.6775255 7.89312814,12.8685158 C8.03623356,13.059561 9.91093659,15.9498952 12.7816116,17.18941 C13.4643003,17.4842973 13.9973488,17.660351 14.4129366,17.7921991 C15.0984259,18.0100422 15.7222469,17.9792905 16.2153181,17.9055961 C16.7651153,17.8234999 17.9083662,17.2134074 18.146857,16.5449963 C18.3852928,15.8764205 18.3852928,15.3035046 18.3137401,15.1841768 C18.2422423,15.0647942 18.0514717,14.9931866 17.7653157,14.8499164 M12.5439995,21.9791036 L12.5401556,21.9791036 C10.8320611,21.9784446 9.15675014,21.5195298 7.69527363,20.6522758 L7.34766913,20.4459645 L3.7449928,21.3910314 L4.70658877,17.8784138 L4.4802889,17.518234 C3.52742423,16.0027223 3.02413903,14.2510811 3.02490783,12.4524338 C3.02699455,7.20415487 7.29720332,2.93427558 12.5477886,2.93427558 C15.0902986,2.9351542 17.4802581,3.92656838 19.2775326,5.72587473 C21.0746973,7.52507125 22.06386,9.91667811 22.0628716,12.4601217 C22.0607299,17.7088399 17.7905761,21.9791036 12.5439995,21.9791036 M20.6453261,4.35868526 C18.4830943,2.19392741 15.6075869,1.00125407 12.5438897,0.99999105 C6.23138091,0.99999105 1.09375338,6.1372891 1.09122735,12.4517199 C1.09040364,14.4702422 1.61774109,16.4403855 2.61997329,18.1772548 L0.995237984,24.1118467 L7.06640052,22.5192909 C8.73918542,23.431684 10.6225648,23.9126193 12.5393319,23.9132234 L12.5439995,23.9132234 L12.5440544,23.9132234 C18.8559043,23.9132234 23.9939711,18.7754311 23.9965521,12.4608905 C23.9977053,9.40076273 22.807558,6.52338819 20.6453261,4.35868526" id="Fill-1" fill="#FFFFFF" mask="url(#mask-2)"></path>
            </g>
            <g id="Group" transform="translate(74.000000, 12.000000)" fill="#FFFFFF">
                <path d="M6.912,7.888 C6.912,6.256 5.616,5.376 4.48,4.656 C3.6,4.096 2.816,3.648 2.816,2.992 C2.816,2.48 3.2,2.224 3.568,2.224 C3.952,2.224 4.256,2.512 4.256,2.976 L4.256,3.472 L6.752,3.472 L6.752,3.024 C6.752,1.36 5.456,0 3.568,0 C1.264,0 0.08,1.616 0.08,3.28 C0.08,4.848 1.36,5.712 2.496,6.416 C3.376,6.976 4.16,7.44 4.16,8.096 C4.16,8.656 3.904,8.96 3.36,8.96 C2.816,8.96 2.496,8.592 2.496,8.08 L2.496,7.568 L0,7.568 L0,8.144 C0,10.048 1.312,11.184 3.488,11.184 C5.696,11.184 6.912,9.568 6.912,7.888 Z M18.352,10.912 L18.352,0.256 L14.608,0.256 L13.776,4.432 L13.488,6.032 L13.216,4.432 L12.352,0.256 L8.59200001,0.256 L8.59200001,10.912 L11.152,10.912 L11.152,4.208 L11.632,6.928 L12.432,10.912 L14.192,10.912 L15.056,6.928 L15.584,4.208 L15.584,10.912 L18.352,10.912 Z M26.928,7.888 C26.928,6.256 25.632,5.376 24.496,4.656 C23.616,4.096 22.832,3.648 22.832,2.992 C22.832,2.48 23.216,2.224 23.584,2.224 C23.968,2.224 24.272,2.512 24.272,2.976 L24.272,3.472 L26.768,3.472 L26.768,3.024 C26.768,1.36 25.472,0 23.584,0 C21.28,0 20.096,1.616 20.096,3.28 C20.096,4.848 21.376,5.712 22.512,6.416 C23.392,6.976 24.176,7.44 24.176,8.096 C24.176,8.656 23.92,8.96 23.376,8.96 C22.832,8.96 22.512,8.592 22.512,8.08 L22.512,7.568 L20.016,7.568 L20.016,8.144 C20.016,10.048 21.328,11.184 23.504,11.184 C25.712,11.184 26.928,9.568 26.928,7.888 Z" id="SMS"></path>
            </g>
        </g>
    </g>
</svg>