<?xml version="1.0" encoding="UTF-8" standalone="no"?>
<svg width="228px" height="18px" viewBox="0 0 228 18" version="1.1" xmlns="http://www.w3.org/2000/svg" xmlns:xlink="http://www.w3.org/1999/xlink">
    <!-- Generator: Sketch 43.2 (39069) - http://www.bohemiancoding.com/sketch -->
    <title>Expanded Share Drawer</title>
    <desc>Created with Sketch.</desc>
    <defs>
        <polygon id="path-1" points="8.4858129e-06 0 17.7719226 0 17.7719226 17.8573195 8.4858129e-06 17.8573195 8.4858129e-06 2.41181305e-15"></polygon>
        <polygon id="path-3" points="8.4858129e-06 0 17.7719226 0 17.7719226 17.8573195 8.4858129e-06 17.8573195 8.4858129e-06 2.41181305e-15"></polygon>
    </defs>
    <g id="Page-1" stroke="none" stroke-width="1" fill="none" fill-rule="evenodd">
        <g id="Expanded-Share-Drawer" transform="translate(-12.000000, -7.000000)">
            <g id="Group-21-Copy-3">
                <g id="Group-7" transform="translate(85.000000, 0.000000)" fill="#FFFFFF">
                    <path d="M18.0993945,16.4653989 L21.8758936,20.3910723 L10.3080734,20.3910723 L14.1029051,16.5022597 L16.0828173,18.3821596 L18.0993945,16.4653989 Z M10.5097311,11.2311677 L21.6559034,11.2311677 L16.0828173,16.5575509 L10.5097311,11.2311677 Z M18.8143627,15.7834744 L22.5908619,12.2079785 L22.5908619,19.7091478 L18.8143627,15.7834744 Z M9.59310514,19.7091478 L9.59310514,12.2079785 L13.3879368,15.8019048 L9.59310514,19.7091478 Z" id="m"></path>
                </g>
                <g id="Group-6" transform="translate(42.000000, 0.000000)" fill="#FFFFFF">
                    <path d="M23.2871329,11.2902011 C22.8537937,11.8717973 22.4204545,12.4526675 21.7704457,12.8875941 L21.7704457,13.2506379 C21.7704457,13.9041169 21.6975003,14.6302047 21.4815529,15.2836836 C21.2648833,15.9371626 21.0482137,16.5913676 20.7593209,17.2441205 C20.4711504,17.8975995 20.037089,18.4784697 19.5315266,19.0593399 C19.0266864,19.64021 18.4481786,20.0758627 17.870393,20.5115153 C17.2211065,20.9478941 16.5703755,21.2376031 15.7766425,21.5280382 C14.9814651,21.7458645 14.1147867,21.891082 13.2488306,21.891082 C11.4432506,21.891082 9.92584126,21.4539772 8.62654593,20.6567329 C8.84321553,20.6567329 9.05988512,20.7293417 9.34877791,20.7293417 C9.99878669,20.7293417 10.6487955,20.5848502 11.2988043,20.3662978 C11.9480908,20.1484715 12.5265986,19.7854276 13.0314388,19.350501 C12.3821522,19.350501 11.8043666,19.1326747 11.2988043,18.7696309 C10.7932419,18.406587 10.4321259,17.8983256 10.2154563,17.2441205 C10.4321259,17.3174554 10.5765723,17.3174554 10.7932419,17.3174554 C11.0821347,17.3174554 11.3710275,17.3174554 11.587697,17.2441205 C10.8654651,17.098903 10.2876795,16.7358591 9.85506253,16.2283238 C9.42027888,15.6467275 9.20360928,15.0658573 9.20360928,14.3397696 L9.20360928,14.3397696 C9.6376707,14.5575959 10.0702877,14.7028134 10.57585,14.7028134 C10.1417886,14.4131044 9.85361806,14.0500606 9.56472527,13.6136818 C9.27655471,13.1780292 9.20360928,12.6697678 9.20360928,12.1615063 C9.20360928,11.6532449 9.34805568,11.1457096 9.6376707,10.7093309 C10.3599027,11.6532449 11.2988043,12.3793327 12.3821522,12.8875941 C13.4655002,13.3958555 14.6210714,13.7588994 15.8488657,13.8315081 C15.7766425,13.6136818 15.7766425,13.3958555 15.7766425,13.1054204 C15.7766425,12.3067239 16.0648131,11.5806362 16.6425987,11.000492 C17.2211065,10.4196219 17.9433385,10.1291868 18.7370714,10.1291868 C19.6037498,10.1291868 20.3259818,10.4196219 20.9759905,11.0731008 C21.6259993,10.9278833 22.2767303,10.710057 22.8545159,10.3470131 C22.6378463,11.0731008 22.2045071,11.653971 21.5544984,12.0170149 C22.1315617,11.7258537 22.7093473,11.5806362 23.2871329,11.2902011 Z" id="Shape-Copy"></path>
                </g>
                <g id="Group-5" fill="#FFFFFF">
                    <path d="M18.2452564,16.0907092 L18.630756,13.7653631 L16.7032579,13.7653631 L16.7032579,11.7500631 C16.7032579,11.3625055 16.5490581,11.1299709 16.7032579,10.9749478 C16.8574578,10.8199247 16.8574578,10.6649016 17.2429574,10.6649016 L19.7872549,10.6649016 L19.7872549,8.41706709 C18.2452564,8.33955556 18.2452564,8.33955556 17.5513571,8.33955556 C16.3948582,8.33955556 15.3162303,8.6496017 14.6986599,9.19295757 C14.0818605,9.73476321 13.542161,10.5881652 13.542161,11.5183037 L13.542161,13.6886267 L12.0001625,13.6886267 L12.0001625,16.0139728 L13.542161,16.0139728 L13.542161,22.2148956 L16.626158,22.2148956 L16.626158,16.0139728 L18.2452564,16.0139728 L18.2452564,16.0907092 L18.2452564,16.0907092 Z" id="Shape-Copy-2"></path>
                </g>
                <g id="Group-19" transform="translate(127.000000, 0.000000)">
                    <g id="Page-1" transform="translate(7.111111, 7.111111)">
                        <mask id="mask-2" fill="white">
                            <use xlink:href="#path-1"></use>
                        </mask>
                        <g id="Clip-2"></g>
                    </g>
                    <g id="Group-20">
                        <g id="Group-8" transform="translate(0.106162, 0.000000)"></g>
                        <path d="M16.355585,8.17777778 C11.8370865,8.17777778 8.17419869,11.6029305 8.17419869,15.828134 L8.17419869,15.828134 C8.17419869,18.2317035 9.35963361,20.3764451 11.2136138,21.7789348 L11.2136138,21.7789348 L11.2136138,24.7068766 L14.0056311,23.1582108 C14.7499452,23.3665457 15.5388015,23.4785492 16.355585,23.4785492 L16.355585,23.4785492 C20.8740246,23.4785492 24.5369124,20.0533375 24.5369124,15.828134 L24.5369124,15.828134 C24.5369124,11.6029305 20.8740246,8.17777778 16.355585,8.17777778 Z M21.6849163,13.6957063 L17.2172053,18.436739 L15.1012747,16.2385585 L11.0262538,18.4921221 L15.4939058,13.7510894 L17.6099543,15.9493289 L21.6849163,13.6957063 Z" id="Page-1" fill="#FFFFFF"></path>
                    </g>
                </g>
                <g id="Group-19-Copy" transform="translate(170.000000, 0.000000)">
                    <g id="Group-8" transform="translate(0.106162, 0.000000)"></g>
                    <g id="Page-1" transform="translate(7.111111, 7.111111)">
                        <mask id="mask-4" fill="white">
                            <use xlink:href="#path-3"></use>
                        </mask>
                        <g id="Clip-2"></g>
                        <path d="M12.6331134,10.5599405 C12.4296247,10.4580986 11.4291681,9.96587547 11.2426271,9.89788972 C11.0561251,9.82998207 10.920466,9.79608681 10.7848068,9.99973168 C10.6491477,10.2034156 10.2591571,10.6618216 10.1404456,10.7976369 C10.0217732,10.9334131 9.90306167,10.9504779 9.69957301,10.8485578 C9.49608434,10.7467159 8.84039864,10.5318637 8.06315082,9.83853398 C7.4582299,9.29894342 7.04980773,8.63259712 6.93113529,8.42887415 C6.81242381,8.22515119 6.9184441,8.11503067 7.0203251,8.01357921 C7.11189696,7.92235881 7.22385282,7.77588289 7.32557763,7.65705426 C7.42734148,7.53826468 7.46123674,7.45333129 7.52906629,7.31759408 C7.59689585,7.18173972 7.56300059,7.06295014 7.51207962,6.96110818 C7.46123674,6.85926623 7.05425941,5.85759903 6.88470504,5.45011405 C6.71952426,5.05336777 6.55176619,5.10710034 6.42684578,5.10081332 C6.3082905,5.09491679 6.17247519,5.0936672 6.03685513,5.0936672 C5.90119602,5.0936672 5.68072068,5.14458818 5.49417964,5.34827209 C5.30767765,5.55199506 4.78198883,6.04433532 4.78198883,7.04588537 C4.78198883,8.04755256 5.51112726,9.01512926 5.61289112,9.15094457 C5.71465498,9.28679893 7.04777713,11.3421477 9.08914606,12.2235805 C9.57461355,12.4332781 9.95367025,12.5584718 10.2491994,12.6522304 C10.7366584,12.8071411 11.1802645,12.7852732 11.5308929,12.7328683 C11.9218598,12.6744889 12.7348382,12.2406452 12.9044316,11.7653307 C13.073986,11.289899 13.073986,10.8824921 13.0231041,10.7976369 C12.9722612,10.7127425 12.8366021,10.6618216 12.6331134,10.5599405 M8.92017745,15.6295848 L8.91744396,15.6295848 C7.70279899,15.6291162 6.51146676,15.3027767 5.47219458,14.6860628 L5.22500916,14.5393525 L2.66310599,15.2114001 L3.34690757,12.7135387 L3.18598322,12.4574108 C2.50839056,11.3797136 2.15049887,10.1341021 2.15104557,8.855064 C2.15252946,5.12295457 5.18912236,2.08659597 8.92287188,2.08659597 C10.730879,2.08722077 12.4304057,2.7922264 13.7084676,4.07173314 C14.9864514,5.35116178 15.689856,7.05185999 15.6891531,8.86053098 C15.6876302,12.5929528 12.6510763,15.6295848 8.92017745,15.6295848 M14.6811208,3.09950952 C13.1435337,1.56012616 11.0987284,0.712002893 8.92009935,0.711104747 C4.43120421,0.711104747 0.777780184,4.36429447 0.775983892,8.85455635 C0.775398144,10.28995 1.15039366,11.6909408 1.86309212,12.9260479 L0.707724788,17.1462021 L5.02499593,16.0137179 C6.21453186,16.6625309 7.55382388,17.0045293 8.91685821,17.0049588 L8.92017745,17.0049588 L8.9202165,17.0049588 C13.408643,17.0049588 17.0623795,13.3514177 17.0642148,8.86107768 C17.0650348,6.68498683 16.2187079,4.63885383 14.6811208,3.09950952" id="Fill-1" fill="#FFFFFF" mask="url(#mask-4)"></path>
                    </g>
                </g>
                <g id="Group" transform="translate(213.000000, 0.000000)">
                    <g id="Group-6" transform="translate(0.467237, 0.000000)"></g>
                    <path d="M11.9091556,17.7607111 C11.9091556,16.6001778 10.9875556,15.9744 10.1797333,15.4624 C9.55395556,15.0641778 8.99644444,14.7456 8.99644444,14.2791111 C8.99644444,13.9150222 9.26951111,13.7329778 9.5312,13.7329778 C9.80426667,13.7329778 10.0204444,13.9377778 10.0204444,14.2677333 L10.0204444,14.6204444 L11.7953778,14.6204444 L11.7953778,14.3018667 C11.7953778,13.1185778 10.8737778,12.1514667 9.5312,12.1514667 C7.8928,12.1514667 7.05084444,13.3006222 7.05084444,14.4839111 C7.05084444,15.5989333 7.96106667,16.2133333 8.76888889,16.7139556 C9.39466667,17.1121778 9.95217778,17.4421333 9.95217778,17.9086222 C9.95217778,18.3068444 9.77013333,18.5230222 9.38328889,18.5230222 C8.99644444,18.5230222 8.76888889,18.2613333 8.76888889,17.8972444 L8.76888889,17.5331556 L6.99395556,17.5331556 L6.99395556,17.9427556 C6.99395556,19.2967111 7.92693333,20.1045333 9.47431111,20.1045333 C11.0444444,20.1045333 11.9091556,18.9553778 11.9091556,17.7607111 Z M20.0442667,19.9111111 L20.0442667,12.3335111 L17.3818667,12.3335111 L16.7902222,15.3031111 L16.5854222,16.4408889 L16.392,15.3031111 L15.7776,12.3335111 L13.1038222,12.3335111 L13.1038222,19.9111111 L14.9242667,19.9111111 L14.9242667,15.1438222 L15.2656,17.0780444 L15.8344889,19.9111111 L17.0860445,19.9111111 L17.7004445,17.0780444 L18.0759111,15.1438222 L18.0759111,19.9111111 L20.0442667,19.9111111 Z M26.1427556,17.7607111 C26.1427556,16.6001778 25.2211556,15.9744 24.4133334,15.4624 C23.7875556,15.0641778 23.2300445,14.7456 23.2300445,14.2791111 C23.2300445,13.9150222 23.5031111,13.7329778 23.7648,13.7329778 C24.0378667,13.7329778 24.2540445,13.9377778 24.2540445,14.2677333 L24.2540445,14.6204444 L26.0289778,14.6204444 L26.0289778,14.3018667 C26.0289778,13.1185778 25.1073778,12.1514667 23.7648,12.1514667 C22.1264,12.1514667 21.2844445,13.3006222 21.2844445,14.4839111 C21.2844445,15.5989333 22.1946667,16.2133333 23.0024889,16.7139556 C23.6282667,17.1121778 24.1857778,17.4421333 24.1857778,17.9086222 C24.1857778,18.3068444 24.0037334,18.5230222 23.6168889,18.5230222 C23.2300445,18.5230222 23.0024889,18.2613333 23.0024889,17.8972444 L23.0024889,17.5331556 L21.2275556,17.5331556 L21.2275556,17.9427556 C21.2275556,19.2967111 22.1605334,20.1045333 23.7079111,20.1045333 C25.2780445,20.1045333 26.1427556,18.9553778 26.1427556,17.7607111 Z" id="SMS" fill="#FFFFFF"></path>
                </g>
            </g>
        </g>
    </g>
</svg>