<?xml version="1.0" encoding="utf-8"?>
<svg id="Group_220" data-name="Group 220" width="510.5" height="775" viewBox="0 0 510.5 775" xmlns="http://www.w3.org/2000/svg">
  <defs>
    <style>
      .cls-1 {
        fill: #bf0e15;
      }

      .cls-2 {
        fill: #8f8f8f;
      }

      .cls-3 {
        fill: #111;
      }

      .cls-4 {
        fill: #600;
      }

      .cls-5 {
        fill: #fff;
      }

      .cls-6 {
        fill: #c2c2c2;
      }

      .cls-7 {
        fill: #e6ded5;
      }

      .cls-8 {
        fill: #807c77;
      }

      .cls-9 {
        fill: #cc0e0e;
      }

      .cls-10 {
        fill: #a39e98;
      }

      .cls-11 {
        fill: #ccc6be;
      }

      .cls-12 {
        fill: #206c88;
      }

      .cls-13 {
        fill: #267f99;
      }

      .cls-14 {
        fill: #a3a3a3;
      }
    </style>
  </defs>
  <g id="sprites" transform="translate(0.5)">
    <path id="Path_21" data-name="Path 21" class="cls-1" d="M61.2,291.8a8.748,8.748,0,0,1-2.1,2.2v.5a9.034,9.034,0,0,1-.4,2.8c-.3.9-.6,1.8-1,2.7a10.064,10.064,0,0,1-1.7,2.5,14.34,14.34,0,0,1-2.3,2,12.987,12.987,0,0,1-2.9,1.4,13.449,13.449,0,0,1-3.5.5,11.971,11.971,0,0,1-6.4-1.7c.3,0,.6.1,1,.1a8.574,8.574,0,0,0,2.7-.5,7.217,7.217,0,0,0,2.4-1.4,4.131,4.131,0,0,1-3.9-2.9,2.2,2.2,0,0,0,.8.1A3.749,3.749,0,0,0,45,300a4.2,4.2,0,0,1-3.4-4h0a4.136,4.136,0,0,0,1.9.5,5.017,5.017,0,0,1-1.4-1.5,4.552,4.552,0,0,1-.5-2,3.606,3.606,0,0,1,.6-2,10.154,10.154,0,0,0,3.8,3,13.173,13.173,0,0,0,4.8,1.3,3.083,3.083,0,0,1-.1-1,4.1,4.1,0,0,1,4.1-4.1,4.158,4.158,0,0,1,3.1,1.3,8.248,8.248,0,0,0,2.6-1,3.788,3.788,0,0,1-1.8,2.3C59.6,292.4,60.4,292.2,61.2,291.8Z"/>
    <path id="Path_22" data-name="Path 22" class="cls-1" d="M59.5,329.5l-8.4,6.3-8.4-6.3a.908.908,0,0,1,.3-.7,1.08,1.08,0,0,1,.7-.3H58.5a.908.908,0,0,1,.7.3A1.08,1.08,0,0,1,59.5,329.5Zm-16.9,1.9,8.4,6.3,8.4-6.3v8.7a.908.908,0,0,1-.3.7,1.08,1.08,0,0,1-.7.3H43.7a.908.908,0,0,1-.7-.3,1.08,1.08,0,0,1-.3-.7C42.6,340.1,42.6,331.4,42.6,331.4Z"/>
    <path id="Path_23" data-name="Path 23" class="cls-2" d="M102.2,291.8a8.748,8.748,0,0,1-2.1,2.2v.5a9.034,9.034,0,0,1-.4,2.8c-.3.9-.6,1.8-1,2.7a10.064,10.064,0,0,1-1.7,2.5,14.339,14.339,0,0,1-2.3,2,12.987,12.987,0,0,1-2.9,1.4,13.449,13.449,0,0,1-3.5.5,11.971,11.971,0,0,1-6.4-1.7c.3,0,.6.1,1,.1a8.574,8.574,0,0,0,2.7-.5,9.455,9.455,0,0,0,2.4-1.4,4.131,4.131,0,0,1-3.9-2.9,2.2,2.2,0,0,0,.8.1A3.749,3.749,0,0,0,86,300a4.179,4.179,0,0,1-2.4-1.4,4.109,4.109,0,0,1-.9-2.6h0a4.136,4.136,0,0,0,1.9.5,5.017,5.017,0,0,1-1.4-1.5,3.513,3.513,0,0,1-.5-2,3.606,3.606,0,0,1,.6-2,10.154,10.154,0,0,0,3.8,3,13.173,13.173,0,0,0,4.8,1.3,3.083,3.083,0,0,1-.1-1,4.1,4.1,0,0,1,4.1-4.1,4.158,4.158,0,0,1,3.1,1.3,8.248,8.248,0,0,0,2.6-1,3.788,3.788,0,0,1-1.8,2.3C100.6,292.4,101.4,292.2,102.2,291.8Z"/>
    <path id="Path_24" data-name="Path 24" class="cls-2" d="M100.5,329.5l-8.4,6.3-8.4-6.3a.908.908,0,0,1,.3-.7,1.08,1.08,0,0,1,.7-.3H99.5a.908.908,0,0,1,.7.3A1.08,1.08,0,0,1,100.5,329.5Zm-16.9,1.9,8.4,6.3,8.4-6.3v8.7a.908.908,0,0,1-.3.7,1.08,1.08,0,0,1-.7.3H84.6a.908.908,0,0,1-.7-.3,1.08,1.08,0,0,1-.3-.7Z"/>
    <g id="Group_178" data-name="Group 178">
      <path id="Path_25" data-name="Path 25" class="cls-2" d="M96,260l.5-3H94v-2.6c0-.5-.2-.8,0-1s.2-.4.7-.4H98v-2.9c-2-.1-2-.1-2.9-.1a5.824,5.824,0,0,0-3.7,1.1,4.168,4.168,0,0,0-1.5,3v2.8h-2v3h2v8h4v-8l2.1.1Z"/>
    </g>
    <path id="Path_26" data-name="Path 26" class="cls-3" d="M143.1,291.8A8.748,8.748,0,0,1,141,294v.5a9.034,9.034,0,0,1-.4,2.8c-.3.9-.6,1.8-1,2.7a10.064,10.064,0,0,1-1.7,2.5,14.339,14.339,0,0,1-2.3,2,12.987,12.987,0,0,1-2.9,1.4,13.449,13.449,0,0,1-3.5.5,11.971,11.971,0,0,1-6.4-1.7c.3,0,.6.1,1,.1a8.574,8.574,0,0,0,2.7-.5,7.217,7.217,0,0,0,2.4-1.4A4.131,4.131,0,0,1,125,300a2.2,2.2,0,0,0,.8.1,3.749,3.749,0,0,0,1.1-.1,4.179,4.179,0,0,1-2.4-1.4,4.109,4.109,0,0,1-.9-2.6h0a4.136,4.136,0,0,0,1.9.5,5.017,5.017,0,0,1-1.4-1.5,3.513,3.513,0,0,1-.5-2,3.606,3.606,0,0,1,.6-2,10.154,10.154,0,0,0,3.8,3,13.173,13.173,0,0,0,4.8,1.3,3.083,3.083,0,0,1-.1-1,4.1,4.1,0,0,1,4.1-4.1,4.158,4.158,0,0,1,3.1,1.3,8.248,8.248,0,0,0,2.6-1,3.788,3.788,0,0,1-1.8,2.3C141.5,292.4,142.3,292.2,143.1,291.8Z"/>
    <path id="Path_27" data-name="Path 27" class="cls-3" d="M141.4,329.5l-8.4,6.3-8.4-6.3a.908.908,0,0,1,.3-.7,1.08,1.08,0,0,1,.7-.3h14.8a.908.908,0,0,1,.7.3A1.08,1.08,0,0,1,141.4,329.5Zm-16.9,1.9,8.4,6.3,8.4-6.3v8.7a.908.908,0,0,1-.3.7,1.08,1.08,0,0,1-.7.3H125.5a.908.908,0,0,1-.7-.3,1.08,1.08,0,0,1-.3-.7v-8.7Z"/>
    <g id="Group_179" data-name="Group 179">
      <path id="Path_28" data-name="Path 28" class="cls-1" d="M57.5,363.2h0a5.493,5.493,0,0,0-7.7,0h0a5.372,5.372,0,0,0,0,7.6h0a5.372,5.372,0,0,0,7.6,0h0A5.284,5.284,0,0,0,57.5,363.2Zm-1.4,6.3h0a3.236,3.236,0,0,1-4.7.1l-.1-.1a3.2,3.2,0,0,1,0-4.6l.1-.1a3.2,3.2,0,0,1,4.6,0l.1.1A3.2,3.2,0,0,1,56.1,369.5Z"/>
    </g>
    <path id="Path_29" data-name="Path 29" class="cls-1" d="M45.9,376.6c-.4.4-1,.3-1.5-.2h0a1,1,0,0,1-.2-1.4l5-5a1.1,1.1,0,0,1,1.5.1h0a1.118,1.118,0,0,1,.2,1.5Z"/>
    <path id="Path_30" data-name="Path 30" class="cls-1" d="M49.4,374.2c.6-.6.7-1.3.2-1.8l-1.1-1.1a1.4,1.4,0,0,0-1.8.2l-3.6,3.6c-.6.6-.7,1.3-.2,1.8L44,378a1.4,1.4,0,0,0,1.8-.2Z"/>
    <g id="Group_180" data-name="Group 180">
      <path id="Path_31" data-name="Path 31" class="cls-2" d="M98.5,363.2h0a5.493,5.493,0,0,0-7.7,0h0a5.372,5.372,0,0,0,0,7.6h0a5.372,5.372,0,0,0,7.6,0h0A5.284,5.284,0,0,0,98.5,363.2ZM97,369.5h0a3.236,3.236,0,0,1-4.7.1l-.1-.1a3.2,3.2,0,0,1,0-4.6l.1-.1a3.2,3.2,0,0,1,4.6,0l.1.1A3.2,3.2,0,0,1,97,369.5Z"/>
    </g>
    <path id="Path_32" data-name="Path 32" class="cls-2" d="M86.8,376.6c-.4.4-1,.3-1.5-.2h0a1,1,0,0,1-.2-1.4l5-5a1.1,1.1,0,0,1,1.5.1h0c.5.5.6,1.1.2,1.5Z"/>
    <path id="Path_33" data-name="Path 33" class="cls-2" d="M90.3,374.2c.6-.6.7-1.3.2-1.8l-1.1-1.1a1.4,1.4,0,0,0-1.8.2L84,375.1c-.6.6-.7,1.3-.2,1.8l1.1,1.1a1.4,1.4,0,0,0,1.8-.2Z"/>
    <g id="Group_181" data-name="Group 181">
      <path id="Path_34" data-name="Path 34" class="cls-3" d="M139.4,363.2h0a5.493,5.493,0,0,0-7.7,0h0a5.372,5.372,0,0,0,0,7.6h0a5.372,5.372,0,0,0,7.6,0h0A5.284,5.284,0,0,0,139.4,363.2Zm-1.4,6.3h0a3.236,3.236,0,0,1-4.7.1l-.1-.1a3.2,3.2,0,0,1,0-4.6l.1-.1a3.2,3.2,0,0,1,4.6,0l.1.1A3.2,3.2,0,0,1,138,369.5Z"/>
    </g>
    <path id="Path_35" data-name="Path 35" class="cls-3" d="M127.8,376.6c-.4.4-1,.3-1.5-.2h0a1,1,0,0,1-.2-1.4l5-5a1.1,1.1,0,0,1,1.5.1h0c.5.5.6,1.1.2,1.5Z"/>
    <path id="Path_36" data-name="Path 36" class="cls-3" d="M131.3,374.2c.6-.6.7-1.3.2-1.8l-1.1-1.1a1.4,1.4,0,0,0-1.8.2l-3.6,3.6c-.6.6-.7,1.3-.2,1.8l1.1,1.1a1.4,1.4,0,0,0,1.8-.2Z"/>
    <path id="Path_37" data-name="Path 37" class="cls-1" d="M43.8,412.7s0-1.8.5-2.2c.5-.3,4.3-2,4.6-2.2a4.878,4.878,0,0,0,.8-1.2s.5.1.5,0,.1-.5,0-.5a2.93,2.93,0,0,1-.7-1.6c-.1-.8-.5-.4-.5-.4l-.3-.3-.2-1.1-.1-.3h.3s-.5-2.8-.2-3.4.3-1.2.8-1.7a4.643,4.643,0,0,1,2-1,10.868,10.868,0,0,1,1.8.1,5.4,5.4,0,0,1,1.7.9,9.993,9.993,0,0,1,.8,1.4,12.178,12.178,0,0,1,0,2.7c-.1.2.1.4.1.6-.1.2-.2,1.8-.5,1.9a1.577,1.577,0,0,1-.4.1s0,1.2-.2,1.4a1.546,1.546,0,0,0-.3.6l.1.3.3.1,1.1,1.1,2.4,1.2s1.3.8,1.4.8a5.547,5.547,0,0,1,.8.6l.5,1.3v.4Z"/>
    <path id="Path_38" data-name="Path 38" class="cls-4" d="M20.3,291.8a8.748,8.748,0,0,1-2.1,2.2v.5a9.034,9.034,0,0,1-.4,2.8c-.3.9-.6,1.8-1,2.7a10.064,10.064,0,0,1-1.7,2.5,14.34,14.34,0,0,1-2.3,2,12.987,12.987,0,0,1-2.9,1.4,13.449,13.449,0,0,1-3.5.5A11.971,11.971,0,0,1,0,304.7c.3,0,.6.1,1,.1a8.574,8.574,0,0,0,2.7-.5,7.217,7.217,0,0,0,2.4-1.4A4.131,4.131,0,0,1,2.2,300a2.2,2.2,0,0,0,.8.1,3.749,3.749,0,0,0,1.1-.1,4.179,4.179,0,0,1-2.4-1.4A4.109,4.109,0,0,1,.8,296h0a4.136,4.136,0,0,0,1.9.5A5.017,5.017,0,0,1,1.3,295a3.513,3.513,0,0,1-.5-2,3.606,3.606,0,0,1,.6-2,10.154,10.154,0,0,0,3.8,3,13.173,13.173,0,0,0,4.8,1.3,3.083,3.083,0,0,1-.1-1,4.1,4.1,0,0,1,4.1-4.1,4.158,4.158,0,0,1,3.1,1.3,8.248,8.248,0,0,0,2.6-1,3.788,3.788,0,0,1-1.8,2.3C18.7,292.4,19.5,292.2,20.3,291.8Z"/>
    <path id="Path_39" data-name="Path 39" class="cls-4" d="M18.6,329.5l-8.4,6.3-8.4-6.3a.908.908,0,0,1,.3-.7,1.08,1.08,0,0,1,.7-.3H17.6a.908.908,0,0,1,.7.3A1.08,1.08,0,0,1,18.6,329.5ZM1.7,331.4l8.4,6.3,8.4-6.3v8.7a.908.908,0,0,1-.3.7,1.08,1.08,0,0,1-.7.3H2.7a.908.908,0,0,1-.7-.3,1.08,1.08,0,0,1-.3-.7v-8.7Z"/>
    <g id="Group_182" data-name="Group 182">
      <path id="Path_40" data-name="Path 40" class="cls-4" d="M16.6,363.2h0a5.493,5.493,0,0,0-7.7,0h0a5.372,5.372,0,0,0,0,7.6h0a5.372,5.372,0,0,0,7.6,0h0A5.284,5.284,0,0,0,16.6,363.2Zm-1.5,6.3h0a3.236,3.236,0,0,1-4.7.1l-.1-.1a3.2,3.2,0,0,1,0-4.6l.1-.1a3.2,3.2,0,0,1,4.6,0l.1.1A3.2,3.2,0,0,1,15.1,369.5Z"/>
    </g>
    <path id="Path_41" data-name="Path 41" class="cls-4" d="M5,376.6c-.4.4-1,.3-1.5-.2h0a1,1,0,0,1-.2-1.4l5-5a1.1,1.1,0,0,1,1.5.1h0c.5.5.6,1.1.2,1.5Z"/>
    <path id="Path_42" data-name="Path 42" class="cls-4" d="M8.4,374.2c.6-.6.7-1.3.2-1.8l-1.1-1.1a1.4,1.4,0,0,0-1.8.2l-3.6,3.6c-.6.6-.7,1.3-.2,1.8L3,378a1.4,1.4,0,0,0,1.8-.2Z"/>
    <path id="Path_43" data-name="Path 43" class="cls-4" d="M2.8,412.7s0-1.8.6-2.2c.5-.3,4.3-2,4.6-2.2a4.878,4.878,0,0,0,.8-1.2s.5.1.5,0,.1-.5,0-.5a2.929,2.929,0,0,1-.7-1.6c-.1-.8-.5-.4-.5-.4l-.3-.3-.2-1.1V403h.3s-.5-2.8-.2-3.4.3-1.2.8-1.7a4.643,4.643,0,0,1,2-1,10.868,10.868,0,0,1,1.8.1,5.4,5.4,0,0,1,1.7.9,9.993,9.993,0,0,1,.8,1.4,12.178,12.178,0,0,1,0,2.7c-.1.2.1.4.1.6-.1.2-.2,1.8-.5,1.9a1.577,1.577,0,0,1-.4.1s0,1.2-.2,1.4a1.546,1.546,0,0,0-.3.6l.1.3.3.1,1.1,1.1,2.4,1.2s1.3.8,1.4.8a5.547,5.547,0,0,1,.8.6L20,412v.4Z"/>
    <path id="Path_44" data-name="Path 44" class="cls-2" d="M84.3,412.7s.3-1.8.8-2.2c.5-.3,4.4-2,4.7-2.2a7.959,7.959,0,0,0,.8-1.2s.5.1.6,0c0-.1.1-.5,0-.5a2.929,2.929,0,0,1-.7-1.6c-.1-.8-.5-.4-.5-.4l-.3-.3-.2-1.1-.1-.3h.3s-.5-2.8-.2-3.4.3-1.2.8-1.7a4.643,4.643,0,0,1,2-1,10.868,10.868,0,0,1,1.8.1,5.4,5.4,0,0,1,1.7.9,9.994,9.994,0,0,1,.8,1.4,12.178,12.178,0,0,1,0,2.7c-.1.2.1.4.1.6-.1.2-.2,1.8-.5,1.9a1.577,1.577,0,0,1-.4.1s0,1.2-.2,1.4a1.546,1.546,0,0,0-.3.6l.1.3.3.1,1.1,1.1,2.4,1.2s1.3.8,1.4.8.3.6.3.6v1.7Z"/>
    <path id="Path_45" data-name="Path 45" class="cls-3" d="M125.8,412.7s0-1.8.5-2.2c.5-.3,4.3-2,4.6-2.2a7.959,7.959,0,0,0,.8-1.2s.5.1.5,0,.1-.5,0-.5a2.929,2.929,0,0,1-.7-1.6c-.1-.8-.5-.4-.5-.4l-.3-.3-.2-1.1-.1-.3h.3s-.5-2.8-.2-3.4.3-1.2.8-1.7a4.643,4.643,0,0,1,2-1,10.868,10.868,0,0,1,1.8.1,5.4,5.4,0,0,1,1.7.9,9.994,9.994,0,0,1,.8,1.4,12.178,12.178,0,0,1,0,2.7c-.1.2.1.4.1.6s-.2,1.8-.5,1.9a1.577,1.577,0,0,1-.4.1s0,1.2-.2,1.4a1.546,1.546,0,0,0-.3.6l.1.3.3.1,1.1,1.1,2.4,1.2s1.3.8,1.4.8a7.017,7.017,0,0,1,.9.6l.5,1.3v.4Z"/>
    <path id="Path_46" data-name="Path 46" class="cls-5" d="M195.3,291.8a8.748,8.748,0,0,1-2.1,2.2v.5a9.034,9.034,0,0,1-.4,2.8c-.3.9-.6,1.8-1,2.7a10.064,10.064,0,0,1-1.7,2.5,14.339,14.339,0,0,1-2.3,2,12.987,12.987,0,0,1-2.9,1.4,13.449,13.449,0,0,1-3.5.5,11.971,11.971,0,0,1-6.4-1.7c.3,0,.6.1,1,.1a8.574,8.574,0,0,0,2.7-.5,7.217,7.217,0,0,0,2.4-1.4,4.131,4.131,0,0,1-3.9-2.9,2.2,2.2,0,0,0,.8.1,3.749,3.749,0,0,0,1.1-.1,4.179,4.179,0,0,1-2.4-1.4,4.109,4.109,0,0,1-.9-2.6h0a4.136,4.136,0,0,0,1.9.5,5.017,5.017,0,0,1-1.4-1.5,3.513,3.513,0,0,1-.5-2,3.606,3.606,0,0,1,.6-2,10.154,10.154,0,0,0,3.8,3,13.173,13.173,0,0,0,4.8,1.3,3.083,3.083,0,0,1-.1-1,4.1,4.1,0,0,1,4.1-4.1,4.158,4.158,0,0,1,3.1,1.3,8.248,8.248,0,0,0,2.6-1,3.788,3.788,0,0,1-1.8,2.3C193.7,292.4,194.5,292.2,195.3,291.8Z"/>
    <path id="Path_47" data-name="Path 47" class="cls-5" d="M193.6,329.5l-8.4,6.3-8.4-6.3a.908.908,0,0,1,.3-.7,1.08,1.08,0,0,1,.7-.3h14.8a.908.908,0,0,1,.7.3A1.08,1.08,0,0,1,193.6,329.5Zm-16.9,1.9,8.4,6.3,8.4-6.3v8.7a.908.908,0,0,1-.3.7,1.08,1.08,0,0,1-.7.3H177.7a.908.908,0,0,1-.7-.3,1.08,1.08,0,0,1-.3-.7v-8.7Z"/>
    <g id="Group_183" data-name="Group 183">
      <path id="Path_48" data-name="Path 48" class="cls-5" d="M191.6,363.2h0a5.493,5.493,0,0,0-7.7,0h0a5.372,5.372,0,0,0,0,7.6h0a5.372,5.372,0,0,0,7.6,0h0A5.284,5.284,0,0,0,191.6,363.2Zm-1.5,6.3h0a3.236,3.236,0,0,1-4.7.1l-.1-.1a3.2,3.2,0,0,1,0-4.6l.1-.1a3.2,3.2,0,0,1,4.6,0l.1.1A3.2,3.2,0,0,1,190.1,369.5Z"/>
    </g>
    <path id="Path_49" data-name="Path 49" class="cls-5" d="M180,376.6c-.4.4-1,.3-1.5-.2h0a1,1,0,0,1-.2-1.4l5-5a1.1,1.1,0,0,1,1.5.1h0c.5.5.6,1.1.2,1.5Z"/>
    <path id="Path_50" data-name="Path 50" class="cls-5" d="M183.4,374.2c.6-.6.7-1.3.2-1.8l-1.1-1.1a1.4,1.4,0,0,0-1.8.2l-3.6,3.6c-.6.6-.7,1.3-.2,1.8L178,378a1.4,1.4,0,0,0,1.8-.2Z"/>
    <path id="Path_51" data-name="Path 51" class="cls-5" d="M177.9,412.7s0-1.8.6-2.2c.5-.3,4.3-2,4.6-2.2a4.878,4.878,0,0,0,.8-1.2s.5.1.5,0,.1-.5,0-.5a2.929,2.929,0,0,1-.7-1.6c-.1-.8-.5-.4-.5-.4l-.3-.3-.2-1.1-.1-.3h.3s-.5-2.8-.2-3.4.3-1.2.8-1.7a4.643,4.643,0,0,1,2-1,10.868,10.868,0,0,1,1.8.1,5.4,5.4,0,0,1,1.7.9,9.994,9.994,0,0,1,.8,1.4,12.178,12.178,0,0,1,0,2.7c-.1.2.1.4.1.6s-.2,1.8-.5,1.9a1.577,1.577,0,0,1-.4.1s0,1.2-.2,1.4a1.546,1.546,0,0,0-.3.6l.1.3.3.1L190,408l2.4,1.2s1.3.8,1.4.8a5.547,5.547,0,0,1,.8.6l.4,1.3v.4Z"/>
    <g id="Group_184" data-name="Group 184">
      <path id="Path_52" data-name="Path 52" class="cls-1" d="M54,260l.5-3H52v-2.6c0-.5-.2-.8,0-1s.2-.4.7-.4H56v-2.9c-2-.1-2-.1-2.9-.1a5.824,5.824,0,0,0-3.7,1.1,4.168,4.168,0,0,0-1.5,3v2.8h-2v3h2v8h4v-8l2.1.1Z"/>
    </g>
    <g id="Group_185" data-name="Group 185">
      <path id="Path_53" data-name="Path 53" class="cls-4" d="M14,260l.5-3H12v-2.6c0-.5-.2-.8,0-1s.2-.4.7-.4H16v-2.9c-2-.1-2-.1-2.9-.1a5.824,5.824,0,0,0-3.7,1.1,4.168,4.168,0,0,0-1.5,3v2.8H6v3H8v8h4v-8l2,.1Z"/>
    </g>
    <g id="Group_186" data-name="Group 186">
      <path id="Path_54" data-name="Path 54" class="cls-3" d="M136,260l.5-3H134v-2.6c0-.5-.2-.8,0-1s.2-.4.7-.4H138v-2.9c-2-.1-2-.1-2.9-.1a5.824,5.824,0,0,0-3.7,1.1,4.168,4.168,0,0,0-1.5,3v2.8h-2v3h2v8h4v-8l2.1.1Z"/>
    </g>
    <g id="Group_187" data-name="Group 187">
      <path id="Path_55" data-name="Path 55" class="cls-5" d="M188,260l.5-3H186v-2.6c0-.5-.2-.8,0-1s.2-.4.7-.4H190v-2.9c-2-.1-2-.1-2.9-.1a5.824,5.824,0,0,0-3.7,1.1,4.168,4.168,0,0,0-1.5,3v2.8h-2v3h2v8h4v-8l2.1.1Z"/>
    </g>
    <path id="Path_56" data-name="Path 56" class="cls-2" d="M1.5,441h22a1.5,1.5,0,0,1,0,3H1.5a1.5,1.5,0,0,1,0-3Z"/>
    <path id="Path_57" data-name="Path 57" class="cls-2" d="M1.5,433h22a1.5,1.5,0,0,1,0,3H1.5a1.5,1.5,0,0,1,0-3Z"/>
    <path id="Path_58" data-name="Path 58" class="cls-2" d="M1.5,425h22a1.5,1.5,0,0,1,0,3H1.5a1.5,1.5,0,0,1,0-3Z"/>
    <path id="Path_59" data-name="Path 59" class="cls-2" d="M43,425.5,59.5,442a1.626,1.626,0,0,1-2.3,2.3L40.6,427.7a1.693,1.693,0,0,1,0-2.3A1.72,1.72,0,0,1,43,425.5Z"/>
    <path id="Path_60" data-name="Path 60" class="cls-2" d="M40.5,442.3,57,425.8a1.693,1.693,0,0,1,2.3,0,1.6,1.6,0,0,1,0,2.3L42.8,444.6a1.693,1.693,0,0,1-2.3,0A1.521,1.521,0,0,1,40.5,442.3Z"/>
    <path id="Path_61" data-name="Path 61" class="cls-6" d="M99,436.5,89,426.2l1-1,10,10.3Z"/>
    <path id="Path_62" data-name="Path 62" class="cls-6" d="M80,435.3,90,425l1,1L81,436.3Z"/>
    <path id="Path_63" data-name="Path 63" class="cls-6" d="M111,425l10,10.3-1,1L110,426Z"/>
    <path id="Path_64" data-name="Path 64" class="cls-6" d="M130,426.2l-10,10.3-1-1,10-10.3Z"/>
    <path id="Path_65" data-name="Path 65" class="cls-6" d="M160.7,444l10.1-10,1,1-10.1,10Z"/>
    <path id="Path_66" data-name="Path 66" class="cls-6" d="M150,434.2h19.8v1.4H150Z"/>
    <path id="Path_67" data-name="Path 67" class="cls-6" d="M161.9,425,172,435l-1,1-10.1-10Z"/>
    <g id="Group_188" data-name="Group 188">
      <path id="Path_68" data-name="Path 68" class="cls-5" d="M2.6,475A2.582,2.582,0,0,1,0,472.4a2.647,2.647,0,0,1,2.6-2.6,2.737,2.737,0,0,1,2.7,2.6A2.606,2.606,0,0,1,2.6,475Zm13.7-.2A16.508,16.508,0,0,0,.1,458.7V455c10.6,0,20.1,8.1,20.1,19.8Zm-7.1,0a9.222,9.222,0,0,0-9-9.3v-3.4a12.26,12.26,0,0,1,12.6,12.7Z"/>
    </g>
    <path id="Path_69" data-name="Path 69" class="cls-7" d="M245.3,290.9a8.748,8.748,0,0,1-2.1,2.2v.5a9.034,9.034,0,0,1-.4,2.8c-.3.9-.6,1.8-1,2.7a10.064,10.064,0,0,1-1.7,2.5,14.339,14.339,0,0,1-2.3,2,12.987,12.987,0,0,1-2.9,1.4,13.449,13.449,0,0,1-3.5.5,11.971,11.971,0,0,1-6.4-1.7c.3,0,.6.1,1,.1a8.574,8.574,0,0,0,2.7-.5,7.217,7.217,0,0,0,2.4-1.4,4.131,4.131,0,0,1-3.9-2.9,2.2,2.2,0,0,0,.8.1,3.749,3.749,0,0,0,1.1-.1,4.179,4.179,0,0,1-2.4-1.4,4.109,4.109,0,0,1-.9-2.6h0a4.136,4.136,0,0,0,1.9.5,5.017,5.017,0,0,1-1.4-1.5,3.513,3.513,0,0,1-.5-2,3.606,3.606,0,0,1,.6-2,10.154,10.154,0,0,0,3.8,3,13.173,13.173,0,0,0,4.8,1.3,3.083,3.083,0,0,1-.1-1,4.1,4.1,0,0,1,4.1-4.1,4.158,4.158,0,0,1,3.1,1.3,8.248,8.248,0,0,0,2.6-1,3.788,3.788,0,0,1-1.8,2.3C243.7,291.5,244.5,291.3,245.3,290.9Z"/>
    <path id="Path_70" data-name="Path 70" class="cls-5" d="M0,500H12v18l-6-5.4L0,518Z"/>
    <g id="Group_189" data-name="Group 189">
      <path id="Path_71" data-name="Path 71" class="cls-5" d="M60.5,510.5l-2.6-2.3-7.4,6.4a1.777,1.777,0,0,0,1,.4h18a1.528,1.528,0,0,0,1-.4l-7.4-6.4Z"/>
      <path id="Path_72" data-name="Path 72" class="cls-5" d="M70.5,500.4a1.284,1.284,0,0,0-1-.4h-18a1.528,1.528,0,0,0-1,.4l10,8.6Z"/>
      <path id="Path_73" data-name="Path 73" class="cls-5" d="M50,501.3v12.5l7.2-6.2Z"/>
      <path id="Path_74" data-name="Path 74" class="cls-5" d="M63.8,507.6l7.2,6.2V501.3Z"/>
    </g>
    <g id="Group_190" data-name="Group 190">
      <path id="Path_75" data-name="Path 75" class="cls-8" d="M100,500v17.5h4.9V525l7.5-7.5h12.9V500Zm20.9,11.2H104.4v-2h16.5Zm0-3.7H104.4v-2h16.5Z"/>
    </g>
    <path id="Path_76" data-name="Path 76" class="cls-5" d="M156.7,514.2h6.7v.8h-6.7v-.8Zm0,2.5h4.2v-.8h-4.2v.8Zm13.3-10v9.2a.789.789,0,0,1-.8.8h-2.5V520H153.4v-3.3h-2.5a.789.789,0,0,1-.8-.8v-9.2a.789.789,0,0,1,.8-.8h2.5V500h13.3v5.8h2.5A.882.882,0,0,1,170,506.7Zm-15-.9h10v-4.2H155Zm10,12.5v-5.8H155v5.8Zm3.3-10a.8.8,0,1,0-.8.8C168,509.2,168.3,508.8,168.3,508.3Z"/>
    <path id="Path_77" data-name="Path 77" class="cls-7" d="M5.7,563,24,581.3l-5.6,5.6L0,568.6Z"/>
    <path id="Path_78" data-name="Path 78" class="cls-7" d="M0,568.4,18.4,550l5.6,5.6L5.6,574Z"/>
    <path id="Path_79" data-name="Path 79" class="cls-3" d="M55.7,563,74,581.3l-5.6,5.6L50,568.6Z"/>
    <path id="Path_80" data-name="Path 80" class="cls-3" d="M50,568.4,68.4,550l5.6,5.6L55.6,574Z"/>
    <path id="Path_81" data-name="Path 81" class="cls-7" d="M168.3,573.9,150,555.6l5.6-5.6,18.3,18.3Z"/>
    <path id="Path_82" data-name="Path 82" class="cls-7" d="M174,568.6,155.6,587l-5.6-5.6L168.4,563Z"/>
    <path id="Path_83" data-name="Path 83" class="cls-3" d="M118.3,573.9,100,555.6l5.6-5.6,18.3,18.3Z"/>
    <path id="Path_84" data-name="Path 84" class="cls-3" d="M124,568.6,105.6,587l-5.6-5.6L118.4,563Z"/>
    <g id="Group_192" data-name="Group 192">
      <g id="Group_191" data-name="Group 191">
        <path id="Path_85" data-name="Path 85" class="cls-9" d="M87.3,600c6.4,0,9.1,2.7,9.1,9v57c0,6-2.7,9-9.1,9H9c-5.8,0-9-3-9-9V609c0-6.3,3.1-9.4,9-9ZM29.6,616v43.2l43-21.6Z"/>
      </g>
      <path id="Path_86" data-name="Path 86" class="cls-5" d="M29.6,616v43.2l42.9-21.6Z"/>
    </g>
    <g id="Group_194" data-name="Group 194">
      <g id="Group_193" data-name="Group 193">
        <path id="Path_87" data-name="Path 87" class="cls-9" d="M134.9,600c2.6,0,3.6,1.1,3.6,3.6v22.8c0,2.4-1.1,3.6-3.6,3.6H103.6c-2.3,0-3.6-1.2-3.6-3.6V603.6c0-2.5,1.3-3.8,3.6-3.6Zm-23.1,6.4v17.3L129,615Z"/>
      </g>
      <path id="Path_88" data-name="Path 88" class="cls-5" d="M111.8,606.4v17.3L129,615Z"/>
    </g>
    <g id="Group_196" data-name="Group 196">
      <g id="Group_195" data-name="Group 195">
        <path id="Path_89" data-name="Path 89" class="cls-9" d="M234.8,600.5c6.4,0,9.1,2.7,9.1,9v57c0,6-2.7,9-9.1,9H156.5c-5.8,0-9-3-9-9v-57c0-6.3,3.1-9.4,9-9Zm-57.7,16v43.2l43-21.6Z"/>
      </g>
      <path id="Path_90" data-name="Path 90" class="cls-9" d="M172.9,612.3v51.6l51.3-25.8Z"/>
    </g>
    <g id="Group_198" data-name="Group 198">
      <g id="Group_197" data-name="Group 197">
        <path id="Path_91" data-name="Path 91" class="cls-9" d="M282.9,600c2.6,0,3.6,1.1,3.6,3.6v22.8c0,2.4-1.1,3.6-3.6,3.6H251.6c-2.3,0-3.6-1.2-3.6-3.6V603.6c0-2.5,1.3-3.8,3.6-3.6Zm-23.1,6.4v17.3L277,615Z"/>
      </g>
      <path id="Path_92" data-name="Path 92" class="cls-9" d="M258.1,604.7v20.7L278.7,615Z"/>
    </g>
    <g id="Group_199" data-name="Group 199">
      <path id="Path_93" data-name="Path 93" class="cls-5" d="M86.4,737.7a39.744,39.744,0,0,1-11.6,28.5l7,6.8c10.1-10.1,14.7-22.2,14.7-34.6,0-.7-.1-1.9-.1-1.9h-10C86.3,736.5,86.4,737.2,86.4,737.7Z"/>
      <path id="Path_94" data-name="Path 94" class="cls-5" d="M-.5,753.5H30.9L44.5,775V736.5H-.5Z"/>
      <path id="Path_95" data-name="Path 95" class="cls-5" d="M67.7,737.2a23.749,23.749,0,0,1-6.8,16.5l6.5,6.3c6.8-6.7,9.8-14.4,9.8-22,0-.6-.1-1.5-.1-1.5H67.7Z"/>
      <path id="Path_96" data-name="Path 96" class="cls-5" d="M74.8,709c7.3,7.3,11.1,17.5,11.5,27.5h10a50.634,50.634,0,0,0-14.9-33.9Z"/>
      <path id="Path_97" data-name="Path 97" class="cls-5" d="M61.4,721.4a23.86,23.86,0,0,1,6.3,15.1h9.4a32.546,32.546,0,0,0-9.6-21Z"/>
      <path id="Path_98" data-name="Path 98" class="cls-5" d="M30.9,723.5H-.5v13h45V700Z"/>
    </g>
    <g id="Group_200" data-name="Group 200">
      <path id="Path_99" data-name="Path 99" class="cls-5" d="M185.1,715a15.778,15.778,0,0,1-4.6,11.4l2.8,2.7a19.408,19.408,0,0,0,5.9-13.9v-.8h-4C185.1,714.5,185.1,714.8,185.1,715Z"/>
      <path id="Path_100" data-name="Path 100" class="cls-5" d="M149.5,721.5H163l4.5,8.5V714.5h-18Z"/>
      <path id="Path_101" data-name="Path 101" class="cls-5" d="M177.7,714.8a9.307,9.307,0,0,1-2.7,6.6l2.6,2.5a12.365,12.365,0,0,0,3.9-8.8v-.7h-3.8Z"/>
      <path id="Path_102" data-name="Path 102" class="cls-5" d="M180.5,703.6a16.078,16.078,0,0,1,4.6,10.9h4a20.018,20.018,0,0,0-6-13.5Z"/>
      <path id="Path_103" data-name="Path 103" class="cls-5" d="M175.1,708.5a9.438,9.438,0,0,1,2.5,6h3.8a13.816,13.816,0,0,0-3.8-8.4Z"/>
      <path id="Path_104" data-name="Path 104" class="cls-5" d="M163,709.5H149.5v5h18V700Z"/>
    </g>
    <g id="Group_201" data-name="Group 201">
      <path id="Path_105" data-name="Path 105" class="cls-5" d="M273.7,614.3a7.809,7.809,0,0,1-2.1,5.4l1.3,1.3a9.425,9.425,0,0,0,2.7-6.5v-.4h-1.8C273.7,614,273.7,614.2,273.7,614.3Z"/>
      <path id="Path_106" data-name="Path 106" class="cls-5" d="M257.6,617.3h6.1l2.1,4V614h-8.2Z"/>
      <path id="Path_107" data-name="Path 107" class="cls-5" d="M270.4,614.2a4.471,4.471,0,0,1-1.2,3.1l1.2,1.2a6.058,6.058,0,0,0,1.8-4.1v-.3l-1.8.1Z"/>
      <path id="Path_108" data-name="Path 108" class="cls-5" d="M271.7,609.4a7.531,7.531,0,0,1,2.1,4.9h1.8a8.821,8.821,0,0,0-2.7-6.1Z"/>
      <path id="Path_109" data-name="Path 109" class="cls-5" d="M269.2,611.6a4.049,4.049,0,0,1,1.1,2.7H272a6.05,6.05,0,0,0-1.7-3.8Z"/>
      <path id="Path_110" data-name="Path 110" class="cls-5" d="M263.7,612h-6.1v2.3h8.2v-6.5Z"/>
    </g>
    <g id="Group_202" data-name="Group 202">
      <path id="Path_111" data-name="Path 111" class="cls-5" d="M215,637.2a20.314,20.314,0,0,1-5.6,14.5l3.4,3.4a25.132,25.132,0,0,0,7.2-17.7v-1h-4.9A2.2,2.2,0,0,0,215,637.2Z"/>
      <path id="Path_112" data-name="Path 112" class="cls-5" d="M171.3,645.5h16.6l5.5,10.9V636.6H171.3Z"/>
      <path id="Path_113" data-name="Path 113" class="cls-5" d="M205.9,637a12.04,12.04,0,0,1-3.3,8.4l3.2,3.2a16.063,16.063,0,0,0,4.8-11.2v-.9h-4.7Z"/>
      <path id="Path_114" data-name="Path 114" class="cls-5" d="M209.5,624a19.544,19.544,0,0,1,5.6,13.4H220a24.448,24.448,0,0,0-7.4-16.6Z"/>
      <path id="Path_115" data-name="Path 115" class="cls-5" d="M202.9,630a11.919,11.919,0,0,1,3.1,7.4h4.7a16.629,16.629,0,0,0-4.7-10.3Z"/>
      <path id="Path_116" data-name="Path 116" class="cls-5" d="M187.9,631.2H171.3v6.2h22.1V619.6Z"/>
    </g>
    <path id="Path_117" data-name="Path 117" class="cls-10" d="M205.7,563,224,581.3l-5.6,5.6L200,568.6Z"/>
    <path id="Path_118" data-name="Path 118" class="cls-10" d="M200,568.4,218.4,550l5.6,5.6L205.6,574Z"/>
    <path id="Path_119" data-name="Path 119" class="cls-10" d="M268.3,573.9,250,555.6l5.6-5.6,18.3,18.3Z"/>
    <path id="Path_120" data-name="Path 120" class="cls-10" d="M274,568.6,255.6,587l-5.6-5.6L268.4,563Z"/>
    <path id="Path_121" data-name="Path 121" class="cls-11" d="M295.3,290.9a8.748,8.748,0,0,1-2.1,2.2v.5a9.034,9.034,0,0,1-.4,2.8,14.767,14.767,0,0,1-1,2.7,10.064,10.064,0,0,1-1.7,2.5,14.341,14.341,0,0,1-2.3,2,12.987,12.987,0,0,1-2.9,1.4,13.449,13.449,0,0,1-3.5.5,11.971,11.971,0,0,1-6.4-1.7c.3,0,.6.1,1,.1a8.574,8.574,0,0,0,2.7-.5,9.455,9.455,0,0,0,2.4-1.4,4.131,4.131,0,0,1-3.9-2.9,2.2,2.2,0,0,0,.8.1,3.749,3.749,0,0,0,1.1-.1,4.179,4.179,0,0,1-2.4-1.4,4.109,4.109,0,0,1-.9-2.6h0a4.136,4.136,0,0,0,1.9.5,5.017,5.017,0,0,1-1.4-1.5,4.552,4.552,0,0,1-.5-2,3.606,3.606,0,0,1,.6-2,10.154,10.154,0,0,0,3.8,3,13.173,13.173,0,0,0,4.8,1.3,3.083,3.083,0,0,1-.1-1,4.1,4.1,0,0,1,4.1-4.1,4.158,4.158,0,0,1,3.1,1.3,8.248,8.248,0,0,0,2.6-1,3.788,3.788,0,0,1-1.8,2.3C293.7,291.5,294.5,291.3,295.3,290.9Z"/>
    <path id="Path_122" data-name="Path 122" class="cls-11" d="M293.6,328.6l-8.4,6.3-8.4-6.3a.908.908,0,0,1,.3-.7,1.08,1.08,0,0,1,.7-.3h14.8a.908.908,0,0,1,.7.3A1.08,1.08,0,0,1,293.6,328.6Zm-16.9,1.9,8.4,6.3,8.4-6.3v8.7a.908.908,0,0,1-.3.7,1.08,1.08,0,0,1-.7.3H277.7a.908.908,0,0,1-.7-.3,1.08,1.08,0,0,1-.3-.7v-8.7Z"/>
    <path id="Path_123" data-name="Path 123" class="cls-11" d="M280.2,381.6a2.6,2.6,0,1,0-2.6,2.5A2.63,2.63,0,0,0,280.2,381.6Zm7.4,2.3c0-7.6-5.9-12.1-12.5-12.1V375a8.987,8.987,0,0,1,9,8.8h3.5Zm7.4,0c0-11.2-9.3-18.9-19.9-18.9v3.5c8.6,0,16,7.1,16,15.4Z"/>
    <path id="Path_124" data-name="Path 124" class="cls-7" d="M194.6,434.5h12l-6-9Z"/>
    <path id="Path_125" data-name="Path 125" class="cls-7" d="M230.5,425.5h-12l6,9Z"/>
    <path id="Path_126" data-name="Path 126" class="cls-12" d="M116.9,171.5a2.523,2.523,0,0,1,1.7.6,1.865,1.865,0,0,1,.7,1.6,1.99,1.99,0,0,1-.7,1.6,3,3,0,0,1-3.6,0,1.583,1.583,0,0,1-.6-1.6,2.36,2.36,0,0,1,.7-1.6,3.226,3.226,0,0,1,1.8-.6"/>
    <path id="Path_127" data-name="Path 127" class="cls-1" d="M25.3,167.1l-.2-10.9c0-2.4-.5-4-1.4-4.9S21.3,150,19,150v-.4H30.8v.4c-2,0-3.3.4-4.1,1.3s-1.1,2.5-1.1,4.9L26,175H25L7.8,154.4l-.5-.5c-.1,0-.1.2-.1.7l-.3,12.8q-.15,4.35,1.2,5.7c.9.9,2.5,1.4,4.9,1.4v.4H0v-.4c2.3,0,3.9-.4,4.8-1.3.9-.8,1.4-2.5,1.4-4.9L6.6,155a4.547,4.547,0,0,0-1.2-3.5A5.861,5.861,0,0,0,1,150v-.4H9.6l14.7,17.6c.4.4.6.7.7.7.2,0,.3-.3.3-.8"/>
    <path id="Path_128" data-name="Path 128" class="cls-1" d="M38.9,163.5v-2.3a3.159,3.159,0,0,0-.5-2.1,3.174,3.174,0,0,0-2.3-.6,6.175,6.175,0,0,0-2.5.5,3.416,3.416,0,0,0-1.5,1.4h.4a1.612,1.612,0,0,1,1.3.6,2.106,2.106,0,0,1,.5,1.3,1.622,1.622,0,0,1-.7,1.4,1.964,1.964,0,0,1-1.5.5,1.689,1.689,0,0,1-1-.3,2.163,2.163,0,0,1-1.2-1.9,3.452,3.452,0,0,1,.3-1.3,4.037,4.037,0,0,1,3-2.2,13.318,13.318,0,0,1,3.4-.5,8.579,8.579,0,0,1,4.7,1.1,3.225,3.225,0,0,1,1.5,2.5l.1,8.6a14.033,14.033,0,0,0,.2,2.9,1.516,1.516,0,0,0,1.6,1.3,1.426,1.426,0,0,0,1.5-1.1,11.521,11.521,0,0,0,.3-3,39183783491499.56,39183783491499.56,0,0,0-.2-2.2v-.4h.5v1.7a8.6,8.6,0,0,0,.1,1.6,5.979,5.979,0,0,1-.5,3.1c-.5.7-1.6,1-3.2,1a5.7,5.7,0,0,1-2.9-.6,4.162,4.162,0,0,1-1.5-2.4,4.779,4.779,0,0,1-2.8,2.6,8.026,8.026,0,0,1-3,.4,6.6,6.6,0,0,1-3.2-.8,3.5,3.5,0,0,1-1.8-3.2,4.773,4.773,0,0,1,2-3.6,8.084,8.084,0,0,1,4.4-1.6,10.514,10.514,0,0,0,3.5-.6c.7-.2,1-.8,1-1.8m-.2,7.1v-5.2a2.195,2.195,0,0,1-1.5.8c-.7.1-1.3.2-2,.3a3.364,3.364,0,0,0-2,1.3,5.389,5.389,0,0,0-.9,3.3,7.342,7.342,0,0,0,.4,3.1,1.816,1.816,0,0,0,1.6.8,4.41,4.41,0,0,0,3-1.2,4.26,4.26,0,0,0,1.4-3.2"/>
    <path id="Path_129" data-name="Path 129" class="cls-1" d="M59.2,166.5v1.8a9.15,9.15,0,0,0,.1,1.7,7.075,7.075,0,0,1-.7,3.8c-.6.9-1.9,1.4-3.8,1.4a5.857,5.857,0,0,1-3.9-1.1,4.223,4.223,0,0,1-1.2-3.2l.1-11.1H46.4v-.4a8.167,8.167,0,0,0,5.3-3.7,10.48,10.48,0,0,0,1.4-5.3h.7v8.3h4.9v1.1H53.8v10.6a13.054,13.054,0,0,0,.2,2.7,1.936,1.936,0,0,0,2,1.5,2.375,2.375,0,0,0,2.4-1.7,12.779,12.779,0,0,0,.3-4.4v-1.9l.5-.1Z"/>
    <path id="Path_130" data-name="Path 130" class="cls-1" d="M69.4,158.1v14.8a2.245,2.245,0,0,0,.1,1,.52.52,0,0,0,.4.2,15.525,15.525,0,0,0,3.9.3v.4h-13v-.4a16.222,16.222,0,0,0,2.3-.1q1.05-.15,1.8-.3c.2-.1.3-.5.3-1.1l.1-12.2a1.44,1.44,0,0,0-.2-.9,1.333,1.333,0,0,0-.6-.5,21.782,21.782,0,0,0-3.5-.2v-.4Zm-2.2-8.8a2.523,2.523,0,0,1,1.7.6,2.175,2.175,0,0,1,.7,1.6,1.99,1.99,0,0,1-.7,1.6,2.352,2.352,0,0,1-1.7.6,2.523,2.523,0,0,1-1.7-.6,2.175,2.175,0,0,1-.7-1.6,1.99,1.99,0,0,1,.7-1.6,2.715,2.715,0,0,1,1.7-.6"/>
    <path id="Path_131" data-name="Path 131" class="cls-1" d="M98.9,165.3l-.1,7.7a2.245,2.245,0,0,0,.1,1,.52.52,0,0,0,.4.2,7.07,7.07,0,0,0,1.2.2,8.635,8.635,0,0,0,1.5.1v.4H90.7v-.4a11.482,11.482,0,0,0,1.9-.1c.6-.1,1.2-.2,1.7-.3.2-.1.3-.5.3-1.1l.4-11.9v-.7a.764.764,0,0,0-.2-.5l-.2-.4a8.633,8.633,0,0,0-3.2-.3v-.4l7.6-.6-.1,5a7.891,7.891,0,0,1,1.2-3,3.624,3.624,0,0,1,2.5-1.9,13.916,13.916,0,0,1,1.7-.1,5.678,5.678,0,0,1,4.2,1.5,3.9,3.9,0,0,1,1.4,3l.2,10.4a1.855,1.855,0,0,0,.2,1,.52.52,0,0,0,.4.2,9.01,9.01,0,0,0,1.3.2,10.868,10.868,0,0,0,1.8.1v.4H102.4v-.4a9.15,9.15,0,0,0,1.6-.1c.6-.1,1.2-.2,1.6-.3.2-.1.3-.5.3-1.1l-.1-10a7.456,7.456,0,0,0-.4-2.9,2.075,2.075,0,0,0-2-1.6,3.573,3.573,0,0,0-3.2,2.2,17.507,17.507,0,0,0-1.3,4.5"/>
    <path id="Path_132" data-name="Path 132" class="cls-1" d="M116.9,171.5a2.523,2.523,0,0,1,1.7.6,2.179,2.179,0,0,1,0,3.2,3,3,0,0,1-3.6,0,1.865,1.865,0,0,1-.7-1.6,2.36,2.36,0,0,1,.7-1.6,3.809,3.809,0,0,1,1.9-.6"/>
    <path id="Path_133" data-name="Path 133" class="cls-1" d="M34.4,153.8c0-.2,0-1.2.1-3.3v-.9h-.2c-.8,0-1.1.6-1.3,1.9h-.1l.1-2.1h4l.1,2.1H37c-.2-1.4-.5-2-1.3-2h-.2V152a5.392,5.392,0,0,0,.1,1.7c0,.1.4.1,1.1.2v.1H33.5v-.1c.5,0,.9.1.9-.1"/>
    <path id="Path_134" data-name="Path 134" class="cls-1" d="M40.7,154.1H38V154c.6,0,.9,0,.9-.2a11.926,11.926,0,0,0,.1-1.5v-2.6c0-.1-.3-.1-.9-.2v-.1h2.6v.1c-.5,0-.7,0-.8.1a16.974,16.974,0,0,0-.1,1.9H42a7.218,7.218,0,0,0-.1-1.9c0-.1-.3-.1-.8-.2v-.1h2.6v.1c-.5,0-.8,0-.9.2v2a7.726,7.726,0,0,0,.1,2.1c.1.1.3.1.9.2v.1H41.1v-.1c.5,0,.8,0,.8-.1a5.585,5.585,0,0,0,0-2H39.7v2c0,.1.3.1.8.2l.2.1Z"/>
    <path id="Path_135" data-name="Path 135" class="cls-1" d="M45.4,153.8a11.926,11.926,0,0,0,.1-1.5v-2.6c0-.1-.3-.1-.9-.1v-.1H49v1.8h-.1c-.2-1.4-.5-1.7-1.7-1.7-.4,0-.6,0-.7.1,0,.1,0,.7-.1,1.9h.3c.8,0,1-.3,1-1.2h.1v2.7h-.1c-.1-1-.3-1.3-.9-1.3h-.4v2.1c0,.1.3.1.9.1,1.2,0,1.6-.3,1.8-1.8h.1v1.9H44.4V154c.7-.1,1-.1,1-.2"/>
    <path id="Path_136" data-name="Path 136" class="cls-1" d="M73.2,163.4H92a.1.1,0,0,0,.1-.1l-.1-.1H90.6a7.413,7.413,0,0,0-2.2-2.8,8.765,8.765,0,0,0-11.5.1,9.342,9.342,0,0,0-2.2,2.7H73.2a.1.1,0,0,0-.1.1c0,.1,0,.1.1.1m6.2-2.9a3.44,3.44,0,0,1,3.3-2,3.488,3.488,0,0,1,3.4,2,7.663,7.663,0,0,1,.6,2.6H78.6a11.5,11.5,0,0,1,.8-2.6"/>
    <path id="Path_137" data-name="Path 137" class="cls-1" d="M92,170H73.2a.1.1,0,0,0-.1.1l.1.1h1.3a8.26,8.26,0,0,0,2.1,2.8,9.148,9.148,0,0,0,6,2.1,9.262,9.262,0,0,0,6.1-2.3,7.909,7.909,0,0,0,2-2.6H92a.1.1,0,0,0,.1-.1c.1,0,0-.1-.1-.1m-6,2.9a3.584,3.584,0,0,1-3.4,2,3.54,3.54,0,0,1-3.5-2,8.309,8.309,0,0,1-.6-2.6h8.3a7.983,7.983,0,0,1-.8,2.6"/>
    <path id="Path_138" data-name="Path 138" class="cls-12" d="M88.2,168.2a1.594,1.594,0,0,1-1.2-.4,1.366,1.366,0,0,1-.4-1.1,1.231,1.231,0,0,1,.5-1,1.713,1.713,0,0,1,2.2,0,1.389,1.389,0,0,1,.5,1,1.5,1.5,0,0,1-.4,1.1,1.746,1.746,0,0,1-1.2.4m0-2.6a1.222,1.222,0,0,0-.9.3.909.909,0,0,0-.4.8,1.135,1.135,0,0,0,.3.8,1.817,1.817,0,0,0,2,0,.829.829,0,0,0,.3-.8.909.909,0,0,0-.4-.8,1.222,1.222,0,0,0-.9-.3"/>
    <path id="Path_139" data-name="Path 139" class="cls-12" d="M88.2,165.5a1.284,1.284,0,0,1,1,.4.975.975,0,0,1,.4.9,1.086,1.086,0,0,1-.4.9,1.777,1.777,0,0,1-1,.4,1.284,1.284,0,0,1-1-.4.975.975,0,0,1-.4-.9,1.086,1.086,0,0,1,.4-.9,1.777,1.777,0,0,1,1-.4m0-.1a1.5,1.5,0,0,0-1.1.4,1.389,1.389,0,0,0-.5,1,1.284,1.284,0,0,0,.4,1,1.5,1.5,0,0,0,1.1.4,1.366,1.366,0,0,0,1.1-.4,1.284,1.284,0,0,0,.4-1,1.389,1.389,0,0,0-.5-1c-.1-.3-.5-.4-.9-.4"/>
    <path id="Path_140" data-name="Path 140" class="cls-12" d="M76.1,168.2v-.3h1.1v-2.3l-.5.2-.1-.2.7-.3h.2v2.6h1.1v.3Z"/>
    <path id="Path_141" data-name="Path 141" class="cls-12" d="M77.5,167.9v-2.5h-.2l-.6.2v.1l.6-.1v2.3H76.2v.2h2.3v-.2Z"/>
    <path id="Path_142" data-name="Path 142" class="cls-12" d="M82.5,168.2a1.452,1.452,0,0,1-1.2-.5h0l.2-.2h0a1.53,1.53,0,0,0,1,.4,1.327,1.327,0,0,0,1-.3.758.758,0,0,0,.2-.4c0-.4-.4-.7-.9-.8h-.2a2.956,2.956,0,0,0-.9.2l-.2-.1.1-1.2h2.2v.3H81.9v.7a1.884,1.884,0,0,1,.8-.2h.2c.7.1,1.2.5,1.2,1.1a.713.713,0,0,1-.3.6,1.844,1.844,0,0,1-1.3.4"/>
    <path id="Path_143" data-name="Path 143" class="cls-12" d="M82.8,166.2a1.663,1.663,0,0,0-1.1.2l.1-.8h1.9v-.2H81.6l-.1,1.1.2.1h0a1.778,1.778,0,0,1,1.1-.2c.6.1,1,.4,1,.8,0,.2-.1.3-.2.5a1.6,1.6,0,0,1-1.1.4,1.53,1.53,0,0,1-1-.4l-.1.1a1.633,1.633,0,0,0,1.1.4,1.594,1.594,0,0,0,1.2-.4.864.864,0,0,0,.3-.6,1.126,1.126,0,0,0-1.2-1"/>
    <g id="Group_203" data-name="Group 203">
      <path id="Path_144" data-name="Path 144" class="cls-12" d="M191,36.3a4.019,4.019,0,0,1,2.8,1,3.225,3.225,0,0,1,1.2,2.6,3.272,3.272,0,0,1-1.1,2.6,4.7,4.7,0,0,1-5.8,0,3.467,3.467,0,0,1-1.1-2.6,3.367,3.367,0,0,1,1.2-2.6,4.019,4.019,0,0,1,2.8-1"/>
      <path id="Path_145" data-name="Path 145" class="cls-1" d="M41.3,29.1,41,11.3c-.1-3.9-.8-6.5-2.3-8-1.4-1.4-4-2.2-7.7-2.2V.5H50.4v.6c-3.2,0-5.5.7-6.7,2.2s-1.8,4.1-1.8,8L42.5,42H40.8L12.7,8.3,12,7.4c-.1,0-.2.4-.2,1.2l-.5,20.9c-.1,4.7.5,7.8,1.9,9.4,1.4,1.5,4.1,2.3,8,2.3v.6H0v-.6c3.8,0,6.4-.7,7.8-2,1.4-1.4,2.2-4.1,2.3-8.1l.6-21.8A7.221,7.221,0,0,0,8.8,3.7C7.3,2,4.9,1.2,1.7,1.2V.6H15.8L39.9,29.4c.6.7,1,1.1,1.2,1.1.1-.1.2-.5.2-1.4"/>
      <path id="Path_146" data-name="Path 146" class="cls-1" d="M63.5,23.2V19.5c0-1.7-.3-2.9-.9-3.5s-1.8-.9-3.8-.9a9.279,9.279,0,0,0-4.2.9,4.9,4.9,0,0,0-2.4,2.3c.2,0,.4-.1.7-.1a2.393,2.393,0,0,1,2.1,1,3.5,3.5,0,0,1,.8,2.2,2.99,2.99,0,0,1-1.1,2.3,3.656,3.656,0,0,1-2.5.9,2.353,2.353,0,0,1-1.6-.5A3.292,3.292,0,0,1,48.7,21a6.32,6.32,0,0,1,.5-2.1c.7-1.7,2.3-2.9,4.9-3.7a17.451,17.451,0,0,1,5.5-.8c3.4,0,5.9.6,7.7,1.8a4.742,4.742,0,0,1,2.4,4l.2,14.1a20.429,20.429,0,0,0,.3,4.7,2.605,2.605,0,0,0,2.7,2.2,2.416,2.416,0,0,0,2.5-1.7,13.649,13.649,0,0,0,.5-5,10.869,10.869,0,0,0-.1-1.8c0-.6-.1-1.2-.1-1.8v-.6h.8l.1,2.8c0,.9.1,1.8.1,2.6.1,2.5-.2,4.1-.9,5-.8,1.1-2.6,1.6-5.3,1.6a9.523,9.523,0,0,1-4.7-.9,5.756,5.756,0,0,1-2.4-3.9,7.615,7.615,0,0,1-4.6,4.2,15.875,15.875,0,0,1-4.9.6A10.167,10.167,0,0,1,48.6,41a5.484,5.484,0,0,1-2.9-5.3,7.674,7.674,0,0,1,3.2-5.8,13.339,13.339,0,0,1,7.2-2.6,20.964,20.964,0,0,0,5.7-1c1.2-.4,1.7-1.5,1.7-3.1m-.2,11.6V26.2a4.04,4.04,0,0,1-2.5,1.3c-1.1.1-2.2.3-3.2.4A5.583,5.583,0,0,0,54.3,30a8.665,8.665,0,0,0-1.5,5.4,10.524,10.524,0,0,0,.7,5.1,2.722,2.722,0,0,0,2.6,1.3,7.574,7.574,0,0,0,5-2,7.161,7.161,0,0,0,2.2-5"/>
      <path id="Path_147" data-name="Path 147" class="cls-1" d="M96.6,28.1V31c0,1,.1,1.9.1,2.8,0,3-.3,5-1.1,6.1-1,1.5-3.1,2.3-6.1,2.3-2.9,0-5-.6-6.4-1.9a6.932,6.932,0,0,1-2-5.3l.3-18H75.8v-.6a13.01,13.01,0,0,0,8.6-6.1,17.13,17.13,0,0,0,2.3-8.7h1.2V15.1H96V17H87.9V34.3a20.687,20.687,0,0,0,.3,4.5,3.112,3.112,0,0,0,3.2,2.4,3.589,3.589,0,0,0,3.8-2.8,28.954,28.954,0,0,0,.6-7.3V28l.8.1Z"/>
      <path id="Path_148" data-name="Path 148" class="cls-1" d="M113.4,14.4l.1,24.2a5.423,5.423,0,0,0,.2,1.7,1.4,1.4,0,0,0,.7.4,28.342,28.342,0,0,0,6.3.4v.6H99.5v-.6c1.4,0,2.7,0,3.8-.1a23.422,23.422,0,0,0,3-.5c.3-.2.4-.8.5-1.9l.1-19.9a2.373,2.373,0,0,0-.3-1.5,2.166,2.166,0,0,0-.9-.8,33.086,33.086,0,0,0-5.8-.3v-.6ZM109.8,0a3.62,3.62,0,0,1,2.7,1,3.467,3.467,0,0,1,1.1,2.6,3.631,3.631,0,0,1-1.1,2.6,3.857,3.857,0,0,1-2.8,1,4.019,4.019,0,0,1-2.8-1,3.467,3.467,0,0,1-1.1-2.6A3.631,3.631,0,0,1,106.9,1a4.451,4.451,0,0,1,2.9-1"/>
      <path id="Path_149" data-name="Path 149" class="cls-1" d="M161.6,26.1l-.2,12.6a3.463,3.463,0,0,0,.2,1.7,1.4,1.4,0,0,0,.7.4,14.594,14.594,0,0,0,2,.3,22.632,22.632,0,0,0,2.5.1v.6H148.2v-.6c1.1,0,2.1,0,3.2-.1a20.164,20.164,0,0,0,2.8-.5c.3-.2.5-.8.5-1.9l.6-19.4V18.1a1.222,1.222,0,0,0-.3-.9l-.4-.6c-.4-.3-2.2-.4-5.2-.4v-.6l12.4-1-.1,8.2a11.694,11.694,0,0,1,1.9-4.9c1.3-2,2.7-3,4.1-3.2,1.4-.1,2.3-.2,2.7-.2a9.66,9.66,0,0,1,6.9,2.4,6.875,6.875,0,0,1,2.3,4.9l.4,17a3.168,3.168,0,0,0,.3,1.7,1.4,1.4,0,0,0,.7.4,16.915,16.915,0,0,0,2.1.3c1,.1,2,.1,2.9.1v.6H167.4v-.6a26.232,26.232,0,0,0,2.7-.1,18.633,18.633,0,0,0,2.7-.5c.3-.2.4-.8.4-1.9l-.1-16.3a14.082,14.082,0,0,0-.6-4.7,3.268,3.268,0,0,0-3.3-2.6c-2.1,0-3.9,1.2-5.2,3.7a18.929,18.929,0,0,0-2.4,7.2"/>
      <path id="Path_150" data-name="Path 150" class="cls-1" d="M191,36.3a4.019,4.019,0,0,1,2.8,1,3.225,3.225,0,0,1,1.2,2.6,3.272,3.272,0,0,1-1.1,2.6,4.7,4.7,0,0,1-5.8,0,3.467,3.467,0,0,1-1.1-2.6,3.367,3.367,0,0,1,1.2-2.6,4.019,4.019,0,0,1,2.8-1"/>
      <path id="Path_151" data-name="Path 151" class="cls-1" d="M56.2,7.3A49.1,49.1,0,0,0,56.3,2V.5H56c-1.3,0-1.8,1-2.2,3.2h-.2L53.7.3h6.5l.1,3.4h-.2C59.7,1.4,59.2.5,57.9.5h-.3V4.7a12.336,12.336,0,0,0,.1,2.7c.1.2.7.2,1.8.2v.2H54.1V7.6c1.5,0,2,0,2.1-.3"/>
      <path id="Path_152" data-name="Path 152" class="cls-1" d="M66.5,7.9H62V7.7a6.131,6.131,0,0,0,1.5-.2,11.085,11.085,0,0,0,.1-2.4l.1-1.7a18.885,18.885,0,0,0,0-2.6c-.1-.2-.5-.2-1.4-.2V.4h4.2V.6a4.6,4.6,0,0,0-1.3.2,16.514,16.514,0,0,0-.1,3.1h3.5A18.048,18.048,0,0,0,68.5.8C68.4.6,68,.6,67.2.6V.4h4.2V.6c-.9,0-1.3.1-1.4.2A28.741,28.741,0,0,0,70,4c0,2.1.1,3.3.1,3.5.1.2.6.2,1.5.2v.2H67.1V7.6c.8-.1,1.3-.1,1.3-.2a18.832,18.832,0,0,0,.1-3.3H65a30.252,30.252,0,0,0,0,3.3c.1.2.5.2,1.3.2l.2.3Z"/>
      <path id="Path_153" data-name="Path 153" class="cls-1" d="M74.2,7.4A11.085,11.085,0,0,0,74.3,5V.7c-.1-.2-.5-.2-1.4-.2V.3h7l.1,3h-.2C79.6.9,79,.5,77,.5c-.7,0-1,0-1.1.1a16.514,16.514,0,0,0-.1,3.1h.5c1.3,0,1.7-.4,1.7-2h.2V6.1H78c-.1-1.6-.4-2.2-1.5-2.2h-.7V7.4c0,.2.5.2,1.5.2,2,0,2.7-.5,3-2.9h.2l.1,2V7.8H72.7V7.6c.9,0,1.4,0,1.5-.2"/>
      <path id="Path_154" data-name="Path 154" class="cls-1" d="M119.6,23.1h30.8a.2.2,0,0,0,0-.4h-2.3a13.133,13.133,0,0,0-3.6-4.6,14.221,14.221,0,0,0-18.8.1,14.471,14.471,0,0,0-3.5,4.4h-2.5a.215.215,0,0,0-.2.2c-.2.2,0,.3.1.3m10.2-4.8a5.636,5.636,0,0,1,5.3-3.2,5.705,5.705,0,0,1,5.6,3.3,15.69,15.69,0,0,1,1.1,4.2H128.6a11.589,11.589,0,0,1,1.2-4.3"/>
      <path id="Path_155" data-name="Path 155" class="cls-1" d="M150.3,33.9H119.5a.2.2,0,0,0,0,.4h2.1a12.831,12.831,0,0,0,3.5,4.6,15.278,15.278,0,0,0,19.7-.2,12.122,12.122,0,0,0,3.3-4.3h2.1a.215.215,0,0,0,.2-.2c.2-.2.1-.3-.1-.3m-9.8,4.7a5.8,5.8,0,0,1-5.6,3.3c-2.9,0-4.8-1.1-5.7-3.2a14.342,14.342,0,0,1-1-4.3h13.5a11.605,11.605,0,0,1-1.2,4.2"/>
      <path id="Path_156" data-name="Path 156" class="cls-12" d="M144,30.9a2.489,2.489,0,0,1-1.9-.7,2.193,2.193,0,0,1-.7-1.7,2.136,2.136,0,0,1,.8-1.7,2.664,2.664,0,0,1,3.6,0,2.289,2.289,0,0,1,.8,1.7,2.06,2.06,0,0,1-.7,1.7,2.352,2.352,0,0,1-1.9.7m.1-4.3a2.035,2.035,0,0,0-1.5.6,1.816,1.816,0,0,0-.6,1.4,1.974,1.974,0,0,0,.6,1.4,2.433,2.433,0,0,0,3.2,0,1.933,1.933,0,0,0,0-2.8,2.935,2.935,0,0,0-1.7-.6"/>
      <path id="Path_157" data-name="Path 157" class="cls-12" d="M144.1,26.5a2.452,2.452,0,0,1,1.6.6,2.666,2.666,0,0,1,.7,1.4,1.816,1.816,0,0,1-.6,1.4,2.352,2.352,0,0,1-1.7.6,2.523,2.523,0,0,1-1.7-.6,1.816,1.816,0,0,1-.6-1.4,1.622,1.622,0,0,1,.7-1.4,2.111,2.111,0,0,1,1.6-.6m0-.3a2.41,2.41,0,0,0-1.8.7,2.491,2.491,0,0,0-.8,1.7,1.9,1.9,0,0,0,.7,1.7,2.935,2.935,0,0,0,1.9.7,2.489,2.489,0,0,0,1.9-.7,2.06,2.06,0,0,0,.7-1.7,2.289,2.289,0,0,0-.8-1.7,2.41,2.41,0,0,0-1.8-.7"/>
      <path id="Path_158" data-name="Path 158" class="cls-12" d="M124.4,30.8v-.4h1.7V26.7l-.8.3-.1-.4,1.1-.4h.3v4.2h1.7v.4Z"/>
      <path id="Path_159" data-name="Path 159" class="cls-12" d="M126.5,30.4V26.2h-.2l-1,.4.1.3.8-.3v3.8h-1.7v.3h3.8v-.3Z"/>
      <path id="Path_160" data-name="Path 160" class="cls-12" d="M134.8,30.9a2.831,2.831,0,0,1-1.9-.7l-.1-.1.3-.3.1.1a2.4,2.4,0,0,0,1.6.6,2.2,2.2,0,0,0,1.7-.6.908.908,0,0,0,.3-.7c0-.7-.6-1.2-1.5-1.3H135a1.989,1.989,0,0,0-1.4.4l-.3-.1.1-2H137v.5h-3.1l-.1,1.1a4.154,4.154,0,0,1,1.3-.3h.4c1.2.1,1.9.8,1.9,1.7a1.16,1.16,0,0,1-.4,1,3.408,3.408,0,0,1-2.2.7"/>
      <path id="Path_161" data-name="Path 161" class="cls-12" d="M135.3,27.6a2.914,2.914,0,0,0-1.8.3l.1-1.3h3.1v-.3h-3.4l-.1,1.9.3.2h0a2.844,2.844,0,0,1,1.8-.4c1,.1,1.6.6,1.6,1.3a1.136,1.136,0,0,1-.3.8,2.445,2.445,0,0,1-1.8.6,3.238,3.238,0,0,1-1.7-.6l-.2.2a2.831,2.831,0,0,0,1.9.7,2.578,2.578,0,0,0,2-.7,1.284,1.284,0,0,0,.4-1c0-1-.8-1.6-1.9-1.7"/>
    </g>
    <g id="Group_204" data-name="Group 204">
      <path id="Path_162" data-name="Path 162" class="cls-12" d="M127.3,98.5a2.41,2.41,0,0,1,1.8.7,2.289,2.289,0,0,1,.8,1.7,2.06,2.06,0,0,1-.7,1.7,2.929,2.929,0,0,1-3.8,0,2.193,2.193,0,0,1-.7-1.7,2.568,2.568,0,0,1,2.6-2.4"/>
      <path id="Path_163" data-name="Path 163" class="cls-1" d="M27.5,93.7l-.2-11.8c0-2.6-.6-4.4-1.5-5.3-1-1-2.7-1.4-5.1-1.4v-.4H33.6v.4c-2.2,0-3.6.5-4.5,1.4-.8,1-1.2,2.7-1.2,5.3l.4,20.4H27.1L8.5,79.8,8,79.3c-.1,0-.1.3-.2.8L7.5,94c-.1,3.1.3,5.2,1.3,6.2q1.35,1.5,5.4,1.5v.4H0v-.4c2.5,0,4.3-.5,5.2-1.4q1.5-1.35,1.5-5.4l.4-14.5a5.325,5.325,0,0,0-1.3-3.8A6.485,6.485,0,0,0,1,75v-.4h9.4l16,19.2c.4.5.7.7.8.7.3.1.3-.2.3-.8"/>
      <path id="Path_164" data-name="Path 164" class="cls-1" d="M42.3,89.8V87.3a3.343,3.343,0,0,0-.6-2.3,3.611,3.611,0,0,0-2.5-.6,6.088,6.088,0,0,0-2.8.6,3.117,3.117,0,0,0-1.6,1.6h.5a1.678,1.678,0,0,1,1.4.6,1.872,1.872,0,0,1,.5,1.4,2.127,2.127,0,0,1-.7,1.5,2.523,2.523,0,0,1-1.7.6,2.016,2.016,0,0,1-1.1-.3,2.264,2.264,0,0,1-1.3-2.1,3.926,3.926,0,0,1,.3-1.4A4.829,4.829,0,0,1,36,84.5a11.933,11.933,0,0,1,3.7-.6,9.157,9.157,0,0,1,5.1,1.2,3.281,3.281,0,0,1,1.6,2.7l.1,9.4a15.869,15.869,0,0,0,.2,3.1,1.594,1.594,0,0,0,1.8,1.4,1.751,1.751,0,0,0,1.7-1.1,8.042,8.042,0,0,0,.3-3.3,4.869,4.869,0,0,0-.1-1.2,4.869,4.869,0,0,0-.1-1.2v-.4H51l.1,1.9c0,.6.1,1.2.1,1.7,0,1.6-.1,2.8-.6,3.3-.6.7-1.7,1.1-3.5,1.1a6.291,6.291,0,0,1-3.1-.6,4.043,4.043,0,0,1-1.6-2.6,5.454,5.454,0,0,1-3,2.8,9.6,9.6,0,0,1-3.2.4,6.508,6.508,0,0,1-3.5-.9,3.429,3.429,0,0,1-1.9-3.5,5.475,5.475,0,0,1,2.1-3.9,9.641,9.641,0,0,1,4.8-1.8,11.512,11.512,0,0,0,3.8-.7c.5-.1.8-.8.8-1.9m-.2,7.7V91.8a2.3,2.3,0,0,1-1.7.8l-2.1.3a4,4,0,0,0-2.2,1.4,6.4,6.4,0,0,0-1,3.6c0,1.7.1,2.8.5,3.4a1.852,1.852,0,0,0,1.7.9,4.771,4.771,0,0,0,3.3-1.3,4.29,4.29,0,0,0,1.5-3.4"/>
      <path id="Path_165" data-name="Path 165" class="cls-1" d="M64.4,93.1v2a11.483,11.483,0,0,0,.1,1.9c0,2-.2,3.4-.7,4.1-.7,1-2.1,1.5-4.1,1.5a6.492,6.492,0,0,1-4.3-1.2,4.459,4.459,0,0,1-1.3-3.5l.1-12.1H50.5v-.4a8.786,8.786,0,0,0,5.8-4.1,11.138,11.138,0,0,0,1.5-5.8h.8v9H64v1.2H58.6V97.2a17.048,17.048,0,0,0,.2,3,2,2,0,0,0,2.2,1.6,2.483,2.483,0,0,0,2.6-1.9,17.391,17.391,0,0,0,.4-4.8v-2Z"/>
      <path id="Path_166" data-name="Path 166" class="cls-1" d="M75.6,84l.1,16.1a10.416,10.416,0,0,0,.1,1.1,1.381,1.381,0,0,0,.4.3,18.617,18.617,0,0,0,4.2.3v.4H66.3v-.4a21.75,21.75,0,0,0,2.6-.1c.8-.1,1.4-.2,2-.3.2-.1.3-.6.3-1.2l.1-13.3a1.855,1.855,0,0,0-.2-1c-.2-.3-.4-.5-.6-.5a25.769,25.769,0,0,0-3.8-.2v-.4Zm-2.4-9.7A2.41,2.41,0,0,1,75,75a2.193,2.193,0,0,1,.7,1.7,2.06,2.06,0,0,1-.7,1.7,2.664,2.664,0,0,1-3.6,0,2.193,2.193,0,0,1-.7-1.7,2.413,2.413,0,0,1,.7-1.7,2.481,2.481,0,0,1,1.8-.7"/>
      <path id="Path_167" data-name="Path 167" class="cls-1" d="M107.7,91.7l-.1,8.4a2.815,2.815,0,0,0,.1,1.1,1.069,1.069,0,0,0,.5.3,3.475,3.475,0,0,0,1.3.2,10.284,10.284,0,0,0,1.7.1v.4H98.7v-.4a14.769,14.769,0,0,0,2.1-.1c.7-.1,1.3-.2,1.9-.3.2-.1.3-.6.3-1.2l.4-12.9v-.8a.845.845,0,0,0-.2-.6l-.3-.4a10.065,10.065,0,0,0-3.5-.3v-.4l8.2-.7-.1,5.4a7.008,7.008,0,0,1,1.3-3.2,4.2,4.2,0,0,1,2.7-2.1c.9-.1,1.6-.2,1.8-.2a6.457,6.457,0,0,1,4.6,1.6,4.221,4.221,0,0,1,1.5,3.2l.3,11.3a2.332,2.332,0,0,0,.2,1.1,1.069,1.069,0,0,0,.5.3,4.141,4.141,0,0,0,1.4.2,12.751,12.751,0,0,0,1.9.1v.4H111.3v-.4a12.134,12.134,0,0,0,1.8-.1q1.05-.15,1.8-.3c.2-.1.3-.6.3-1.2l-.1-10.8a8.28,8.28,0,0,0-.4-3.1,2.215,2.215,0,0,0-2.2-1.8,4.023,4.023,0,0,0-3.5,2.4,19.036,19.036,0,0,0-1.3,4.8"/>
      <path id="Path_168" data-name="Path 168" class="cls-1" d="M127.3,98.5a2.41,2.41,0,0,1,1.8.7,2.289,2.289,0,0,1,.8,1.7,2.06,2.06,0,0,1-.7,1.7,2.929,2.929,0,0,1-3.8,0,2.193,2.193,0,0,1-.7-1.7,2.568,2.568,0,0,1,2.6-2.4"/>
      <path id="Path_169" data-name="Path 169" class="cls-1" d="M37.4,79.2c0-.2.1-1.4.1-3.6v-1h-.2c-.9,0-1.2.6-1.4,2.1h-.1l.1-2.2h4.4l.1,2.3h-.1c-.2-1.5-.6-2.2-1.5-2.2h-.2v2.8a5.826,5.826,0,0,0,.1,1.8c0,.1.4.1,1.2.2v.1H36.3v-.1c.7,0,1.1,0,1.1-.2"/>
      <path id="Path_170" data-name="Path 170" class="cls-1" d="M44.3,79.6h-3v-.1c.6,0,1,0,1-.2a12.58,12.58,0,0,0,.1-1.6V74.9c0-.1-.4-.1-.9-.2v-.1h2.8v.1c-.5,0-.8.1-.8.2s-.1.8-.1,2.1h2.4a7.227,7.227,0,0,0-.1-2c0-.1-.3-.1-.9-.2v-.1h2.8v.1c-.6,0-.9,0-.9.2v2.2a9.331,9.331,0,0,0,.1,2.3c.1.1.4.1,1,.2v.1h-3v-.1a5.527,5.527,0,0,0,.9-.1,6.538,6.538,0,0,0,0-2.2H43.3v2.2c0,.1.3.1.9.2l.1-.2Z"/>
      <path id="Path_171" data-name="Path 171" class="cls-1" d="M49.4,79.3a12.58,12.58,0,0,0,.1-1.6V74.9c0-.1-.4-.1-.9-.2v-.1h4.6v2h-.1c-.2-1.6-.6-1.8-1.9-1.8-.5,0-.7,0-.7.1s0,.8-.1,2.1h.3c.9,0,1.1-.3,1.1-1.3h.1v2.9H52c-.1-1.1-.3-1.4-1-1.4h-.4v2.3c0,.1.3.1,1,.1,1.3,0,1.8-.3,2-1.9h.1v2.1H48.5v-.1c.6-.3.9-.3.9-.4"/>
      <path id="Path_172" data-name="Path 172" class="cls-1" d="M79.7,89.7h20.5a.2.2,0,1,0,0-.4H98.7a10.342,10.342,0,0,0-2.4-3.1A10.483,10.483,0,0,0,90,84a9.554,9.554,0,0,0-6.3,2.4,11.33,11.33,0,0,0-2.4,3H79.6a.215.215,0,0,0-.2.2c0,.1.2.1.3.1m6.7-3.2a4.089,4.089,0,0,1,7.2.1,12.58,12.58,0,0,1,.7,2.8H85.5a20.478,20.478,0,0,1,.9-2.9"/>
      <path id="Path_173" data-name="Path 173" class="cls-1" d="M100.2,96.9H79.7a.2.2,0,0,0,0,.4h1.4a8.329,8.329,0,0,0,2.3,3,9.924,9.924,0,0,0,6.5,2.3,9.55,9.55,0,0,0,6.6-2.5,8.6,8.6,0,0,0,2.2-2.9h1.4c.1,0,.2-.1.1-.3h0M93.6,100a3.768,3.768,0,0,1-3.7,2.2c-1.9,0-3.2-.7-3.8-2.1a14.219,14.219,0,0,1-.7-2.8h9a8.648,8.648,0,0,1-.8,2.7"/>
      <path id="Path_174" data-name="Path 174" class="cls-12" d="M96,94.9a2.106,2.106,0,0,1-1.3-.5,1.606,1.606,0,0,1-.5-1.1,1.433,1.433,0,0,1,.5-1.1,1.69,1.69,0,0,1,2.4,0,1.606,1.606,0,0,1,.5,1.1,1.173,1.173,0,0,1-.5,1.1c-.2.4-.6.5-1.1.5m0-2.8a1.284,1.284,0,0,0-1,.4,1.222,1.222,0,0,0-.4.9.975.975,0,0,0,.4.9,1.82,1.82,0,0,0,1.1.4,1.5,1.5,0,0,0,1.1-.4.975.975,0,0,0,.4-.9,1.268,1.268,0,0,0-.4-.9,2.13,2.13,0,0,0-1.2-.4"/>
      <path id="Path_175" data-name="Path 175" class="cls-12" d="M96,92a1.159,1.159,0,0,1,1,.4,1.284,1.284,0,0,1,.4,1,.975.975,0,0,1-.4.9,1.712,1.712,0,0,1-2.2,0,1.222,1.222,0,0,1-.4-.9,1.777,1.777,0,0,1,.4-1A1.922,1.922,0,0,1,96,92m0-.2a1.547,1.547,0,0,0-1.7,1.5,1.274,1.274,0,0,0,.5,1.1,1.631,1.631,0,1,0,2.4-2.2,1.922,1.922,0,0,0-1.2-.4"/>
      <path id="Path_176" data-name="Path 176" class="cls-12" d="M82.9,94.9v-.3H84V92.1l-.5.2-.1-.3.7-.2h.3v2.8h1.1v.3Z"/>
      <path id="Path_177" data-name="Path 177" class="cls-12" d="M84.3,94.6V91.8h-.2l-.6.3v.1l.6-.2v2.6H82.9v.2h2.5v-.2Z"/>
      <path id="Path_178" data-name="Path 178" class="cls-12" d="M89.8,94.9a1.962,1.962,0,0,1-1.3-.5h0l.2-.2h0a1.633,1.633,0,0,0,1.1.4,1.246,1.246,0,0,0,1.1-.4.764.764,0,0,0,.2-.5.915.915,0,0,0-1-.8h-.2a1.657,1.657,0,0,0-1,.3l-.2-.1.1-1.3h2.4v.3H89.1l-.1.7a2,2,0,0,1,.9-.2h.3c.8.1,1.3.5,1.3,1.1a.908.908,0,0,1-.3.7,1.624,1.624,0,0,1-1.4.5"/>
      <path id="Path_179" data-name="Path 179" class="cls-12" d="M90.1,92.7a1.837,1.837,0,0,0-1.2.2L89,92h2.1v-.2H88.8L88.7,93l.2.1h0a1.966,1.966,0,0,1,1.2-.2c.6.1,1.1.4,1.1.9a.764.764,0,0,1-.2.5,1.9,1.9,0,0,1-1.2.4,1.633,1.633,0,0,1-1.1-.4l-.1.1a1.868,1.868,0,0,0,1.2.5,2.226,2.226,0,0,0,1.3-.4.908.908,0,0,0,.3-.7c0-.6-.5-1-1.3-1.1"/>
    </g>
    <g id="Group_205" data-name="Group 205">
      <path id="Path_180" data-name="Path 180" class="cls-12" d="M504.7,48.3a5.308,5.308,0,0,1,3.7,1.4,4.965,4.965,0,0,1,1.6,3.4,4.25,4.25,0,0,1-1.4,3.4,5.637,5.637,0,0,1-3.9,1.4,5.819,5.819,0,0,1-3.9-1.4,4.073,4.073,0,0,1-1.4-3.4,4.42,4.42,0,0,1,1.6-3.4,5.308,5.308,0,0,1,3.7-1.4"/>
      <path id="Path_181" data-name="Path 181" class="cls-1" d="M305.1,38.8l-.4-23.7c-.1-5.2-1.1-8.7-3-10.7-1.9-1.9-5.3-2.9-10.2-2.9V.7h25.8v.8c-4.3,0-7.3,1-8.9,2.9-1.7,1.9-2.4,5.5-2.3,10.7l.8,40.9h-2.3L267.2,11l-1-1.1q-.3,0-.3,1.5L265,39.3c-.2,6.3.7,10.4,2.6,12.5,1.9,2,5.5,3.1,10.7,3.1v.8H250.1v-.8c5,0,8.5-.9,10.4-2.7s2.9-5.4,3.1-10.8l.8-29a10.045,10.045,0,0,0-2.5-7.5c-2.1-2.2-5.3-3.2-9.6-3.2V.9h18.8l32.1,38.3a4.552,4.552,0,0,0,1.5,1.4c.4-.1.5-.7.4-1.8"/>
      <path id="Path_182" data-name="Path 182" class="cls-1" d="M334.7,30.9v-5c0-2.3-.4-3.8-1.2-4.6s-2.5-1.2-5-1.2a11.75,11.75,0,0,0-5.5,1.2,6.065,6.065,0,0,0-3.2,3.1,2.483,2.483,0,0,1,.9-.1,3.285,3.285,0,0,1,2.8,1.3,4.555,4.555,0,0,1,1.1,2.9,3.88,3.88,0,0,1-1.5,3.1,5.163,5.163,0,0,1-3.3,1.2,3.7,3.7,0,0,1-2.1-.6,4.7,4.7,0,0,1-2.6-4.1,7.37,7.37,0,0,1,.6-2.7c.9-2.2,3.1-3.8,6.5-4.9a26.517,26.517,0,0,1,7.4-1.1q6.75,0,10.2,2.4a6.335,6.335,0,0,1,3.2,5.4l.3,18.8a45.527,45.527,0,0,0,.4,6.3,3.431,3.431,0,0,0,3.5,2.9,3.172,3.172,0,0,0,3.3-2.3,19.429,19.429,0,0,0,.7-6.6c0-.8-.1-1.6-.1-2.4a20.082,20.082,0,0,1-.1-2.5v-.8h1.1l.1,3.7c0,1.2.1,2.3.2,3.4q.15,4.95-1.2,6.6c-1.1,1.4-3.5,2.1-7.1,2.1-2.8,0-4.9-.4-6.2-1.3a7.487,7.487,0,0,1-3.2-5.1,10.773,10.773,0,0,1-6.1,5.6,19.462,19.462,0,0,1-6.5.8,13.949,13.949,0,0,1-7-1.7,7.242,7.242,0,0,1-3.9-7,9.977,9.977,0,0,1,4.2-7.8,18.322,18.322,0,0,1,9.7-3.5c3.7-.3,6.3-.7,7.6-1.4,1.4-.5,2-1.9,2-4.1m-.3,15.4V34.9a5.032,5.032,0,0,1-3.3,1.7c-1.5.2-2.9.4-4.3.6a6.99,6.99,0,0,0-4.3,2.7,11.634,11.634,0,0,0-2,7.2c-.1,3.3.2,5.6,1,6.7a3.762,3.762,0,0,0,3.5,1.8,9.658,9.658,0,0,0,6.6-2.7,9.069,9.069,0,0,0,2.8-6.6"/>
      <path id="Path_183" data-name="Path 183" class="cls-1" d="M378.9,37.5l.1,3.9c0,1.3.1,2.6.1,3.8.1,4-.4,6.7-1.4,8.2-1.4,2-4.1,3.1-8.2,3.1-3.9,0-6.7-.8-8.5-2.5-1.8-1.6-2.7-4-2.6-7.1l.2-24.2h-7.5v-.8a17.02,17.02,0,0,0,11.5-8.1,21.564,21.564,0,0,0,3.1-11.5h1.6v18H378v2.5H367.2V45.9a24.132,24.132,0,0,0,.4,5.9,4.031,4.031,0,0,0,4.3,3.2,4.873,4.873,0,0,0,5.1-3.7c.5-1.7.8-4.9.7-9.7l-.1-4.1Z"/>
      <path id="Path_184" data-name="Path 184" class="cls-1" d="M401.3,19.3l.1,32.3a5.073,5.073,0,0,0,.3,2.2c.1.2.4.3.9.5,1.4.4,4.2.6,8.5.6v.8H382.8v-.8c1.9,0,3.6-.1,5.1-.2a14.31,14.31,0,0,0,3.9-.7c.4-.3.6-1.1.6-2.5l.2-26.6c0-1.1-.1-1.8-.4-2.1a2.143,2.143,0,0,0-1.2-1,40.675,40.675,0,0,0-7.7-.4v-.8ZM396.5,0a4.9,4.9,0,0,1,3.6,1.4,4.478,4.478,0,0,1,1.5,3.4,4.331,4.331,0,0,1-1.5,3.4,5.589,5.589,0,0,1-7.4,0,4.073,4.073,0,0,1-1.4-3.4,4.331,4.331,0,0,1,1.5-3.4A5.308,5.308,0,0,1,396.5,0"/>
      <path id="Path_185" data-name="Path 185" class="cls-1" d="M465.5,34.7l-.3,16.8a8.817,8.817,0,0,0,.2,2.2c.1.2.4.3.9.5a10.86,10.86,0,0,0,2.6.4c1.3.1,2.4.2,3.4.2v.8H447.5v-.8c1.4,0,2.8-.1,4.2-.2a13.52,13.52,0,0,0,3.7-.7c.4-.3.6-1.1.7-2.5l.8-25.9V24a1.594,1.594,0,0,0-.4-1.2l-.5-.9q-.9-.6-6.9-.6v-.8l16.5-1.4L465.4,30a17.622,17.622,0,0,1,2.5-6.5c1.7-2.6,3.6-4,5.4-4.2,1.9-.2,3.1-.3,3.7-.3a13.2,13.2,0,0,1,9.2,3.2,9.222,9.222,0,0,1,3,6.5l.5,22.6a5.073,5.073,0,0,0,.3,2.2,1.539,1.539,0,0,0,1,.5,12.079,12.079,0,0,0,2.8.4c1.4.1,2.7.2,3.9.2v.8H472.9v-.8c1,0,2.2-.1,3.6-.2a12.782,12.782,0,0,0,3.6-.7c.4-.3.6-1.1.6-2.5l-.2-21.7a19.375,19.375,0,0,0-.8-6.2c-.8-2.3-2.3-3.5-4.4-3.5-2.8,0-5.1,1.6-7,4.9a48.667,48.667,0,0,0-2.8,10"/>
      <path id="Path_186" data-name="Path 186" class="cls-1" d="M504.7,48.3a5.308,5.308,0,0,1,3.7,1.4,4.965,4.965,0,0,1,1.6,3.4,4.25,4.25,0,0,1-1.4,3.4,5.637,5.637,0,0,1-3.9,1.4,5.383,5.383,0,0,1-3.8-1.4,4.073,4.073,0,0,1-1.4-3.4,4.774,4.774,0,0,1,1.6-3.4,5.063,5.063,0,0,1,3.6-1.4"/>
      <path id="Path_187" data-name="Path 187" class="cls-1" d="M325,9.7c.1-.3.1-2.7.1-7.1V.6h-.4c-1.7,0-2.3,1.3-2.9,4.2h-.2l.1-4.5h8.7l.1,4.6h-.2c-.5-3-1.2-4.3-2.9-4.3H327V6.2a24.839,24.839,0,0,0,.1,3.7c.1.3.9.3,2.4.3v.3c-1.4,0-2.6-.1-3.5-.1s-2,0-3.5.1v-.3c1.7-.1,2.4,0,2.5-.5"/>
      <path id="Path_188" data-name="Path 188" class="cls-1" d="M338.7,10.5h-6v-.3c1.3-.1,1.9-.1,2-.3a27.25,27.25,0,0,0,.2-3.2l.1-2.2A17.429,17.429,0,0,0,335,1c-.1-.2-.7-.3-1.9-.3V.4h5.6V.7c-1.1.1-1.6.1-1.7.3,0,.1,0,1.5-.1,4h4.7a31.67,31.67,0,0,0-.1-4.1c-.1-.2-.6-.3-1.7-.3V.3h5.6V.6c-1.2.1-1.8.1-1.9.3a25.908,25.908,0,0,0,0,4.3c.1,2.8.1,4.4.2,4.6s.7.3,2,.3v.3h-5.9v-.3c1.1-.1,1.7-.1,1.8-.3a33.767,33.767,0,0,0,.1-4.4H337a25.011,25.011,0,0,0,0,4.3c.1.2.7.2,1.8.3l-.1.5Z"/>
      <path id="Path_189" data-name="Path 189" class="cls-1" d="M349,9.8a27.25,27.25,0,0,0,.2-3.2l.1-2.2V.9c-.1-.2-.7-.3-1.9-.3V.3h9.4l.1,4h-.3c-.4-3.1-1.2-3.7-3.8-3.7-.9,0-1.4,0-1.5.2a37.462,37.462,0,0,0-.2,4.2h.6c1.7,0,2.2-.6,2.3-2.7h.2l.1,5.8H354c0-2.1-.5-2.9-2-2.9h-.9a35.922,35.922,0,0,0,.1,4.6c.1.2.7.2,2,.2,2.7,0,3.6-.7,4-3.9h.2l.1,2.7a9.888,9.888,0,0,0,.1,1.5H347.1V10c1.1.1,1.8.1,1.9-.2"/>
      <path id="Path_190" data-name="Path 190" class="cls-1" d="M409.5,30.8h41a.3.3,0,0,0,0-.6h-3a18.883,18.883,0,0,0-4.8-6.2,18.958,18.958,0,0,0-25.1.3,18.863,18.863,0,0,0-4.7,5.9h-3.3a.265.265,0,0,0-.3.3c-.1.1,0,.3.2.3M423,24.3a7.429,7.429,0,0,1,7.1-4.3c3.6,0,6.1,1.5,7.4,4.4a19.686,19.686,0,0,1,1.4,5.6H421.3a22.78,22.78,0,0,1,1.7-5.7"/>
      <path id="Path_191" data-name="Path 191" class="cls-1" d="M450.5,45.2h-41a.3.3,0,0,0,0,.6h2.8a16.709,16.709,0,0,0,4.6,6.1A19.593,19.593,0,0,0,430,56.5a19.844,19.844,0,0,0,13.2-4.9,17.84,17.84,0,0,0,4.5-5.8h2.9a.265.265,0,0,0,.3-.3c-.1-.2-.2-.3-.4-.3m-13.1,6.2a7.686,7.686,0,0,1-7.4,4.4c-3.8,0-6.4-1.4-7.6-4.3a22.551,22.551,0,0,1-1.4-5.7h18a17.845,17.845,0,0,1-1.6,5.6"/>
      <path id="Path_192" data-name="Path 192" class="cls-12" d="M442.1,41.2a3.486,3.486,0,0,1-2.5-.9,2.54,2.54,0,0,1-.9-2.3,2.99,2.99,0,0,1,1.1-2.3,3.656,3.656,0,0,1,2.5-.9,3.244,3.244,0,0,1,2.4.9,3.356,3.356,0,0,1,1.1,2.3,2.9,2.9,0,0,1-1,2.3,4.388,4.388,0,0,1-2.7.9m0-5.7a2.724,2.724,0,0,0-2,.7,2.616,2.616,0,0,0-.9,1.8,2.41,2.41,0,0,0,.7,1.8,2.971,2.971,0,0,0,2.1.7,2.817,2.817,0,0,0,2.1-.7,2.425,2.425,0,0,0,0-3.6,2.724,2.724,0,0,0-2-.7"/>
      <path id="Path_193" data-name="Path 193" class="cls-12" d="M442.1,35.4a3.227,3.227,0,0,1,2.1.8,2.322,2.322,0,0,1,.9,1.9,2.241,2.241,0,0,1-.8,1.9,3.425,3.425,0,0,1-4.4,0,2.241,2.241,0,0,1-.8-1.9,2.322,2.322,0,0,1,.9-1.9,2.782,2.782,0,0,1,2.1-.8m0-.5a3.583,3.583,0,0,0-2.4.9,3.029,3.029,0,0,0-1,2.2,2.94,2.94,0,0,0,.9,2.2,3.486,3.486,0,0,0,2.5.9,3.656,3.656,0,0,0,2.5-.9,2.616,2.616,0,0,0,.9-2.2,3.029,3.029,0,0,0-1-2.2,3.244,3.244,0,0,0-2.4-.9"/>
      <path id="Path_194" data-name="Path 194" class="cls-12" d="M415.9,41.1v-.6h2.3V35.6l-1.1.4-.2-.6,1.5-.5h.5v5.6h2.3v.6Z"/>
      <path id="Path_195" data-name="Path 195" class="cls-12" d="M418.8,40.6V35h-.4l-1.3.5.1.3,1.1-.4v5.2H416V41h5v-.4Z"/>
      <path id="Path_196" data-name="Path 196" class="cls-12" d="M429.7,41.2a3.7,3.7,0,0,1-2.6-1l-.1-.1.4-.4.1.1a3.159,3.159,0,0,0,2.1.8,3.7,3.7,0,0,0,2.3-.7,1.284,1.284,0,0,0,.4-1c0-.9-.8-1.6-2.1-1.7h-.4a4.429,4.429,0,0,0-1.9.5l-.5-.2.1-2.7h4.8v.6h-4.2l-.1,1.5a3.994,3.994,0,0,1,1.8-.4h.5c1.5.2,2.6,1.1,2.6,2.3a1.974,1.974,0,0,1-.6,1.4,2.884,2.884,0,0,1-2.6,1"/>
      <path id="Path_197" data-name="Path 197" class="cls-12" d="M430.4,36.7a4.7,4.7,0,0,0-2.4.4l.1-1.7h4.2V35h-4.5l-.2,2.5.3.2h0a3.6,3.6,0,0,1,2.4-.5c1.3.1,2.1.9,2.1,1.8a1.284,1.284,0,0,1-.4,1,3.2,3.2,0,0,1-2.3.8,3.267,3.267,0,0,1-2.2-.8l-.3.3a3.825,3.825,0,0,0,2.5,1,3.418,3.418,0,0,0,2.6-.9,1.379,1.379,0,0,0,.5-1.3c.1-1.3-.9-2.2-2.4-2.4"/>
    </g>
    <g id="Group_206" data-name="Group 206">
      <path id="Path_198" data-name="Path 198" class="cls-12" d="M416.6,106.7a3.244,3.244,0,0,1,2.4.9,3.145,3.145,0,0,1,0,4.6,3.656,3.656,0,0,1-2.5.9,3.486,3.486,0,0,1-2.5-.9,2.54,2.54,0,0,1-.9-2.3,2.99,2.99,0,0,1,1.1-2.3,3.244,3.244,0,0,1,2.4-.9"/>
      <path id="Path_199" data-name="Path 199" class="cls-1" d="M284.7,100.4l-.3-15.7c-.1-3.4-.7-5.8-2-7-1.3-1.3-3.5-1.9-6.8-1.9v-.6h17v.6c-2.8,0-4.8.6-5.9,1.9s-1.6,3.6-1.5,7l.5,27h-1.5L259.6,82l-.6-.7c-.1,0-.2.3-.2,1l-.5,18.4c-.1,4.1.5,6.9,1.7,8.2,1.2,1.4,3.6,2,7.1,2v.6H248.5v-.6q4.95,0,6.9-1.8c1.3-1.2,1.9-3.6,2-7.1l.5-19.2a6.378,6.378,0,0,0-1.7-5q-2.1-2.1-6.3-2.1v-.6h12.4l21.2,25.3c.6.6.9,1,1,1,.2.1.2-.3.2-1"/>
      <path id="Path_200" data-name="Path 200" class="cls-1" d="M304.3,95.2V91.9a4.813,4.813,0,0,0-.8-3.1c-.5-.5-1.6-.8-3.3-.8a8.744,8.744,0,0,0-3.7.8,3.608,3.608,0,0,0-2.1,2.1c.2,0,.4-.1.6-.1a2.56,2.56,0,0,1,1.9.8,2.805,2.805,0,0,1,.7,1.9,2.334,2.334,0,0,1-1,2,3.5,3.5,0,0,1-2.2.8,2.3,2.3,0,0,1-1.4-.4,2.981,2.981,0,0,1-1.7-2.7,7.423,7.423,0,0,1,.4-1.8c.6-1.5,2-2.5,4.3-3.2a16.136,16.136,0,0,1,4.9-.7c3,0,5.2.5,6.7,1.6a4.073,4.073,0,0,1,2.1,3.5L310,105a17.426,17.426,0,0,0,.3,4.2,2.352,2.352,0,0,0,4.5.4,12.925,12.925,0,0,0,.5-4.4,9.15,9.15,0,0,0-.1-1.6c0-.5-.1-1.1-.1-1.6v-.5h.7l.1,2.5c0,.8.1,1.5.1,2.3.1,2.2-.2,3.6-.8,4.4-.7.9-2.3,1.4-4.7,1.4a8.726,8.726,0,0,1-4.1-.8,4.813,4.813,0,0,1-2.1-3.4,7.241,7.241,0,0,1-4,3.7,12.687,12.687,0,0,1-4.3.6,9.481,9.481,0,0,1-4.6-1.1,4.906,4.906,0,0,1-2.6-4.6,6.668,6.668,0,0,1,2.8-5.1,11.533,11.533,0,0,1,6.4-2.3,17.088,17.088,0,0,0,5-.9,3.692,3.692,0,0,0,1.3-3m-.2,10.2V97.9a3.119,3.119,0,0,1-2.2,1.1c-1,.1-1.9.3-2.8.4a5.163,5.163,0,0,0-2.9,1.8,7.423,7.423,0,0,0-1.3,4.8,10.458,10.458,0,0,0,.6,4.4,2.454,2.454,0,0,0,2.3,1.2,6.378,6.378,0,0,0,4.4-1.8,6.31,6.31,0,0,0,1.9-4.4"/>
      <path id="Path_201" data-name="Path 201" class="cls-1" d="M333.5,99.5v2.6a20.082,20.082,0,0,0,.1,2.5q0,3.9-.9,5.4c-.9,1.4-2.7,2-5.4,2-2.6,0-4.4-.5-5.6-1.6a5.6,5.6,0,0,1-1.7-4.7l.1-16h-4.9v-.6a11.249,11.249,0,0,0,7.6-5.4,14.175,14.175,0,0,0,2-7.6h1V88h7.1v1.6h-7.1v15.3a15.526,15.526,0,0,0,.3,3.9,2.7,2.7,0,0,0,2.8,2.1,3.243,3.243,0,0,0,3.4-2.5c.4-1.1.5-3.3.5-6.4V99.3l.7.2Z"/>
      <path id="Path_202" data-name="Path 202" class="cls-1" d="M348.3,87.5l.1,21.3a4.391,4.391,0,0,0,.2,1.5,1.628,1.628,0,0,0,.6.3,22.752,22.752,0,0,0,5.6.4v.6H336V111c1.2,0,2.4,0,3.4-.1a9.233,9.233,0,0,0,2.6-.5c.3-.2.4-.7.4-1.6l.1-17.6a3.709,3.709,0,0,0-.2-1.4,2.3,2.3,0,0,0-.8-.7,25.178,25.178,0,0,0-5.1-.3v-.5Zm-3.2-12.7a3.248,3.248,0,0,1,3.4,3.2,2.9,2.9,0,0,1-1,2.3,3.407,3.407,0,0,1-2.4.9,3.248,3.248,0,0,1-3.4-3.2,2.9,2.9,0,0,1,1-2.3,3.244,3.244,0,0,1,2.4-.9"/>
      <path id="Path_203" data-name="Path 203" class="cls-1" d="M390.7,97.7l-.2,11.1a2.787,2.787,0,0,0,.2,1.5,1.628,1.628,0,0,0,.6.3,10.927,10.927,0,0,0,1.7.3,17.733,17.733,0,0,0,2.2.1v.6H378.8V111a26.2,26.2,0,0,0,2.8-.1,18.663,18.663,0,0,0,2.5-.4c.3-.2.4-.7.4-1.6l.6-17.1v-1a1.884,1.884,0,0,0-.2-.8l-.3-.6c-.4-.3-1.9-.4-4.6-.4v-.5l10.9-.9-.1,7.2a10.788,10.788,0,0,1,1.7-4.3c1.2-1.7,2.4-2.7,3.6-2.8s2.1-.2,2.4-.2a8.7,8.7,0,0,1,6.1,2.1,6.015,6.015,0,0,1,2,4.3l.4,14.9a4.391,4.391,0,0,0,.2,1.5,1.628,1.628,0,0,0,.6.3,12.5,12.5,0,0,0,1.9.3,23.484,23.484,0,0,0,2.6.1v.6H395.9V111a20.932,20.932,0,0,0,2.4-.1,8.493,8.493,0,0,0,2.4-.5c.3-.2.4-.7.4-1.6L401,94.5a13.723,13.723,0,0,0-.5-4.1,2.954,2.954,0,0,0-2.9-2.3c-1.9,0-3.4,1.1-4.6,3.2a13.821,13.821,0,0,0-2.3,6.4"/>
      <path id="Path_204" data-name="Path 204" class="cls-1" d="M416.6,106.7a3.244,3.244,0,0,1,2.4.9,3.145,3.145,0,0,1,0,4.6,3.656,3.656,0,0,1-2.5.9,3.486,3.486,0,0,1-2.5-.9,2.54,2.54,0,0,1-.9-2.3,2.99,2.99,0,0,1,1.1-2.3,3.244,3.244,0,0,1,2.4-.9"/>
      <path id="Path_205" data-name="Path 205" class="cls-1" d="M297.9,81.2c0-.2.1-1.8.1-4.7V75.2h-.3c-1.1,0-1.6.8-1.9,2.8h-.1l.1-3h5.8l.1,3h-.1c-.3-2-.8-2.9-1.9-2.9h-.3v3.7a9.9,9.9,0,0,0,.1,2.4c.1.2.6.2,1.6.2v.2h-4.6v-.2c.8,0,1.3.1,1.4-.2"/>
      <path id="Path_206" data-name="Path 206" class="cls-1" d="M306.9,81.7H303v-.2c.8-.1,1.3-.1,1.3-.2a7.726,7.726,0,0,0,.1-2.1V77.7a14.958,14.958,0,0,0,0-2.3c0-.2-.5-.2-1.2-.2V75h3.7v.2c-.7.1-1,.1-1.1.2a12.335,12.335,0,0,0-.1,2.7h3.1a13.667,13.667,0,0,0-.1-2.7c-.1-.1-.4-.2-1.1-.2V75h3.7v.2c-.8,0-1.2.1-1.2.2a21.939,21.939,0,0,0,0,2.8c0,1.9.1,2.9.1,3,.1.2.5.2,1.3.2v.2h-4v-.2a4.36,4.36,0,0,0,1.2-.2,14.347,14.347,0,0,0,.1-2.9h-3.1v2.9c0,.2.4.2,1.2.2v.3Z"/>
      <path id="Path_207" data-name="Path 207" class="cls-1" d="M313.7,81.3a7.726,7.726,0,0,0,.1-2.1V75.4c0-.2-.5-.2-1.2-.2V75h6.2l.1,2.6h-.2c-.3-2.1-.8-2.4-2.5-2.4-.6,0-.9,0-1,.1a12.981,12.981,0,0,0-.1,2.8h.4c1.1,0,1.5-.4,1.5-1.8h.2v3.8H317c-.1-1.4-.4-1.9-1.4-1.9H315v3.1c0,.2.5.2,1.3.2,1.8,0,2.4-.4,2.6-2.6h.2v2.8h-7v-.2c1.1-.1,1.6-.1,1.6-.2"/>
      <path id="Path_208" data-name="Path 208" class="cls-1" d="M353.7,95.1h27.1a.2.2,0,1,0,0-.4h-2a12.7,12.7,0,0,0-11.4-7.1,12.724,12.724,0,0,0-8.3,3.2,11.39,11.39,0,0,0-3.1,3.9h-2.2a.215.215,0,0,0-.2.2c-.1.1,0,.2.1.2m8.9-4.3a4.862,4.862,0,0,1,4.7-2.8,4.948,4.948,0,0,1,4.9,2.9,13.3,13.3,0,0,1,.9,3.7H361.4a21.418,21.418,0,0,1,1.2-3.8"/>
      <path id="Path_209" data-name="Path 209" class="cls-1" d="M380.8,104.6H353.7a.2.2,0,1,0,0,.4h1.9a11.709,11.709,0,0,0,3,4,13.458,13.458,0,0,0,17.3-.3,10.444,10.444,0,0,0,2.9-3.8h1.9a.215.215,0,0,0,.2-.2c.1,0,0-.1-.1-.1m-8.7,4.1a5.133,5.133,0,0,1-4.9,2.9c-2.5,0-4.2-.9-5-2.8a15.17,15.17,0,0,1-.9-3.8h11.9a10.821,10.821,0,0,1-1.1,3.7"/>
      <path id="Path_210" data-name="Path 210" class="cls-12" d="M375.2,102a2.523,2.523,0,0,1-1.7-.6,2.035,2.035,0,0,1-.6-1.5,2.127,2.127,0,0,1,.7-1.5,2.433,2.433,0,0,1,3.2,0,2.127,2.127,0,0,1,.7,1.5,2.035,2.035,0,0,1-.6,1.5,2.352,2.352,0,0,1-1.7.6m0-3.8a1.9,1.9,0,0,0-1.3.5,1.426,1.426,0,0,0-.6,1.2,1.346,1.346,0,0,0,.5,1.2,2.21,2.21,0,0,0,2.8,0,1.346,1.346,0,0,0,.5-1.2,1.891,1.891,0,0,0-1.9-1.7"/>
      <path id="Path_211" data-name="Path 211" class="cls-12" d="M375.2,98.1a2.168,2.168,0,0,1,1.4.5,1.612,1.612,0,0,1,.6,1.3,1.656,1.656,0,0,1-.5,1.2,2.5,2.5,0,0,1-3,0,1.346,1.346,0,0,1-.5-1.2,1.76,1.76,0,0,1,.6-1.3,2.389,2.389,0,0,1,1.4-.5m0-.3a2.452,2.452,0,0,0-1.6.6,2.127,2.127,0,0,0-.7,1.5,2.035,2.035,0,0,0,.6,1.5,2.271,2.271,0,0,0,1.6.6,2.111,2.111,0,0,0,1.6-.6,2.035,2.035,0,0,0,.6-1.5,1.8,1.8,0,0,0-.7-1.5c-.2-.4-.7-.6-1.4-.6"/>
      <path id="Path_212" data-name="Path 212" class="cls-12" d="M357.9,101.9v-.4h1.6V98.3l-.8.2-.1-.4,1-.3h.3v3.7h1.5v.4Z"/>
      <path id="Path_213" data-name="Path 213" class="cls-12" d="M359.8,101.6V97.9h-.2l-.9.3.1.2.7-.2v3.4H358v.2h3.3v-.2Z"/>
      <path id="Path_214" data-name="Path 214" class="cls-12" d="M367.1,102a2.839,2.839,0,0,1-1.7-.6v-.1l.3-.3v.1a2.409,2.409,0,0,0,1.4.5,2.07,2.07,0,0,0,1.5-.5.864.864,0,0,0,.3-.6c0-.6-.6-1-1.4-1.1h-.3a3.954,3.954,0,0,0-1.3.3l-.3-.1.1-1.8h3.1v.4H366l-.1,1a3.73,3.73,0,0,1,1.2-.2h.3c1,.1,1.7.7,1.7,1.5a1.086,1.086,0,0,1-.4.9c-.2.4-.9.6-1.6.6"/>
      <path id="Path_215" data-name="Path 215" class="cls-12" d="M367.5,99a2.411,2.411,0,0,0-1.6.3l.1-1.2h2.7v-.3h-3l-.1,1.6.2.1h0a2.88,2.88,0,0,1,1.6-.3c.8.1,1.4.6,1.4,1.2a.908.908,0,0,1-.3.7,2.348,2.348,0,0,1-1.6.5,1.861,1.861,0,0,1-1.5-.6l-.2.2a2.4,2.4,0,0,0,1.6.6,2.2,2.2,0,0,0,1.7-.6,1.267,1.267,0,0,0,.4-.9c.3-.6-.4-1.2-1.4-1.3"/>
    </g>
    <g id="Group_207" data-name="Group 207">
      <path id="Path_216" data-name="Path 216" class="cls-1" d="M68.3,213l-.2-10.9c0-2.4-.5-4-1.4-4.9s-2.5-1.3-4.7-1.3v-.4H73.9v.4c-2,0-3.4.4-4.1,1.3-.8.9-1.1,2.5-1.1,4.9l.4,18.8H68L50.8,200.2l-.5-.5c-.1,0-.1.2-.1.7l-.3,12.8q-.15,4.35,1.2,5.7c.9.9,2.5,1.4,4.9,1.4v.4H43v-.4c2.3,0,3.9-.4,4.8-1.3.9-.8,1.4-2.5,1.4-5l.4-13.4a4.547,4.547,0,0,0-1.2-3.5,5.861,5.861,0,0,0-4.4-1.5v-.4h8.7l14.8,17.7c.4.4.6.7.7.7,0,.2.1-.1.1-.6"/>
    </g>
    <g id="Group_208" data-name="Group 208">
      <path id="Path_217" data-name="Path 217" class="cls-1" d="M27.8,204.6H25.1v-2.5c0-2.3.3-3.9,1.1-4.8.7-.9,2.1-1.3,4-1.3v-.4H18.6v.4c2.2,0,3.7.4,4.6,1.3s1.3,2.5,1.4,4.8v2.5H17l-7.5-8.9H1v.4a5.767,5.767,0,0,1,4.3,1.5A4.149,4.149,0,0,1,6.4,201l-.1,3.7H3.6a.1.1,0,0,0-.1.1l.1.1H27.8a.1.1,0,0,0,.1-.1s0-.2-.1-.2M7,200.5a1.731,1.731,0,0,1,.1-.7l.4.5,3.6,4.3H6.9Z"/>
      <path id="Path_218" data-name="Path 218" class="cls-1" d="M27.8,211.4H3.6a.1.1,0,0,0,0,.2H6.2L6.1,214c-.1,2.4-.5,4-1.4,4.8S2.3,220,0,220v.4H12.7V220c-2.4,0-4-.5-4.8-1.4s-1.2-2.8-1.1-5.6v-1.3H17.1l7.4,8.8h1l-.2-8.8h2.6a.1.1,0,0,0,.1-.1.215.215,0,0,0-.2-.2m-3.1,1.4c0,.5,0,.8-.1.8s-.3-.2-.7-.6l-1-1.2h1.8Z"/>
      <path id="Path_219" data-name="Path 219" class="cls-13" d="M21.4,209.6a1.5,1.5,0,0,1-1.1-.4,1.284,1.284,0,0,1-.4-1,1.777,1.777,0,0,1,.4-1,1.414,1.414,0,0,1,2,2,1.1,1.1,0,0,1-.9.4m0-2.4a1.613,1.613,0,0,0-.9.3,1.234,1.234,0,0,0-.4.8,1.136,1.136,0,0,0,.3.8,1.5,1.5,0,0,0,1.8,0,1.135,1.135,0,0,0,.3-.8.909.909,0,0,0-.4-.8.779.779,0,0,0-.7-.3"/>
      <path id="Path_220" data-name="Path 220" class="cls-13" d="M21.4,207.1a1.4,1.4,0,0,1,.9.3,1.234,1.234,0,0,1,.4.8,1.136,1.136,0,0,1-.3.8,1.5,1.5,0,0,1-1.8,0,1.135,1.135,0,0,1-.3-.8.909.909,0,0,1,.4-.8c0-.2.3-.3.7-.3m0-.2a1.284,1.284,0,0,0-1,.4,1.086,1.086,0,0,0-.4.9.975.975,0,0,0,.4.9,1.777,1.777,0,0,0,1,.4,1.16,1.16,0,0,0,1-.4,1.086,1.086,0,0,0,.4-.9,1.489,1.489,0,0,0-.4-.9,1.777,1.777,0,0,0-1-.4"/>
      <path id="Path_221" data-name="Path 221" class="cls-13" d="M9.3,209.5v-.2h1v-2.1l-.5.2v-.3l.6-.2h.2v2.4h.9v.2Z"/>
      <path id="Path_222" data-name="Path 222" class="cls-13" d="M10.5,209.3v-2.4h-.1l-.6.3.1.1.5-.2v2.2h-1v.2h2.1v-.2Z"/>
      <path id="Path_223" data-name="Path 223" class="cls-13" d="M15.7,209.6a1.633,1.633,0,0,1-1.1-.4h0l.2-.2h0a1.67,1.67,0,0,0,.9.3,1.493,1.493,0,0,0,1-.3.758.758,0,0,0,.2-.4.808.808,0,0,0-.9-.7h-.2a1.539,1.539,0,0,0-.8.2l-.2-.1v-1.1h2v.3H15v.6a1.445,1.445,0,0,1,.7-.2h.2c.6.1,1.1.5,1.1,1a1.421,1.421,0,0,1-.2.6,1.82,1.82,0,0,1-1.1.4"/>
      <path id="Path_224" data-name="Path 224" class="cls-13" d="M15.9,207.7a1.363,1.363,0,0,0-1,.2l.1-.7h1.7V207H14.8l-.1,1,.1.1h0a1.383,1.383,0,0,1,1-.2c.5.1.9.4.9.8a.52.52,0,0,1-.2.4,1.493,1.493,0,0,1-1,.3c-.6,0-.9-.3-.9-.4l-.1.1a1.53,1.53,0,0,0,1,.4,1.246,1.246,0,0,0,1.1-.4c.2-.2.2-.3.2-.6.2-.4-.2-.7-.9-.8"/>
    </g>
    <path id="Path_225" data-name="Path 225" class="cls-14" d="M339.4,300.7a10.1,10.1,0,0,0,0-4h-2.1a5.023,5.023,0,0,0-.5-1.3l1.5-1.5a9.346,9.346,0,0,0-2.8-2.8l-1.5,1.5a6.943,6.943,0,0,0-1.3-.5V290a10.1,10.1,0,0,0-4,0v2.1a5.023,5.023,0,0,0-1.3.5l-1.5-1.5a9.346,9.346,0,0,0-2.8,2.8l1.5,1.5a6.943,6.943,0,0,0-.5,1.3H322a10.1,10.1,0,0,0,0,4h2.1a5.023,5.023,0,0,0,.5,1.3l-1.5,1.5a9.346,9.346,0,0,0,2.8,2.8l1.5-1.5a6.943,6.943,0,0,0,1.3.5v2.1a10.1,10.1,0,0,0,4,0v-2.1a5.023,5.023,0,0,0,1.3-.5l1.5,1.5a9.346,9.346,0,0,0,2.8-2.8l-1.5-1.5a6.943,6.943,0,0,0,.5-1.3Zm-8.7,3a5,5,0,1,1,5-5A5.081,5.081,0,0,1,330.7,303.7Z"/>
    <path id="Path_226" data-name="Path 226" class="cls-3" d="M369.4,300.7a10.1,10.1,0,0,0,0-4h-2.1a5.023,5.023,0,0,0-.5-1.3l1.5-1.5a9.346,9.346,0,0,0-2.8-2.8l-1.5,1.5a6.943,6.943,0,0,0-1.3-.5V290a10.1,10.1,0,0,0-4,0v2.1a5.023,5.023,0,0,0-1.3.5l-1.5-1.5a9.346,9.346,0,0,0-2.8,2.8l1.5,1.5a6.943,6.943,0,0,0-.5,1.3H352a10.1,10.1,0,0,0,0,4h2.1a5.023,5.023,0,0,0,.5,1.3l-1.5,1.5a9.346,9.346,0,0,0,2.8,2.8l1.5-1.5a6.943,6.943,0,0,0,1.3.5v2.1a10.1,10.1,0,0,0,4,0v-2.1a5.023,5.023,0,0,0,1.3-.5l1.5,1.5a9.346,9.346,0,0,0,2.8-2.8l-1.5-1.5a6.943,6.943,0,0,0,.5-1.3Zm-8.7,3a5,5,0,1,1,5-5A5.081,5.081,0,0,1,360.7,303.7Z"/>
  </g>
  <g id="instagram" transform="translate(227 252.419)">
    <g id="Group_215" data-name="Group 215">
      <g id="Group_214" data-name="Group 214">
        <path id="Path_242" data-name="Path 242" class="cls-4" d="M13.75,0H6.25A6.251,6.251,0,0,0,0,6.25v7.5A6.251,6.251,0,0,0,6.25,20h7.5A6.251,6.251,0,0,0,20,13.75V6.25A6.251,6.251,0,0,0,13.75,0Zm4.375,13.75a4.38,4.38,0,0,1-4.375,4.375H6.25A4.38,4.38,0,0,1,1.875,13.75V6.25A4.38,4.38,0,0,1,6.25,1.875h7.5A4.38,4.38,0,0,1,18.125,6.25Z"/>
      </g>
    </g>
    <g id="Group_217" data-name="Group 217" transform="translate(4.773 4.773)">
      <g id="Group_216" data-name="Group 216">
        <path id="Path_243" data-name="Path 243" class="cls-4" d="M133.227,128a5.227,5.227,0,1,0,5.227,5.227A5.227,5.227,0,0,0,133.227,128Zm0,8.494a3.267,3.267,0,1,1,3.267-3.267A3.272,3.272,0,0,1,133.227,136.494Z" transform="translate(-128 -128)"/>
      </g>
    </g>
    <g id="Group_219" data-name="Group 219" transform="translate(14.661 3.946)">
      <g id="Group_218" data-name="Group 218">
        <circle id="Ellipse_8" data-name="Ellipse 8" class="cls-4" cx="0.697" cy="0.697" r="0.697"/>
      </g>
    </g>
  </g>
  <g id="instagram-2" data-name="instagram" transform="translate(270 252.419)">
    <g id="Group_215-2" data-name="Group 215">
      <g id="Group_214-2" data-name="Group 214">
        <path id="Path_242-2" data-name="Path 242" class="cls-1" d="M13.75,0H6.25A6.251,6.251,0,0,0,0,6.25v7.5A6.251,6.251,0,0,0,6.25,20h7.5A6.251,6.251,0,0,0,20,13.75V6.25A6.251,6.251,0,0,0,13.75,0Zm4.375,13.75a4.38,4.38,0,0,1-4.375,4.375H6.25A4.38,4.38,0,0,1,1.875,13.75V6.25A4.38,4.38,0,0,1,6.25,1.875h7.5A4.38,4.38,0,0,1,18.125,6.25Z"/>
      </g>
    </g>
    <g id="Group_217-2" data-name="Group 217" transform="translate(5 5)">
      <g id="Group_216-2" data-name="Group 216">
        <path id="Path_243-2" data-name="Path 243" class="cls-1" d="M133,128a5,5,0,1,0,5,5A5,5,0,0,0,133,128Zm0,8.125A3.125,3.125,0,1,1,136.125,133,3.129,3.129,0,0,1,133,136.125Z" transform="translate(-128 -128)"/>
      </g>
    </g>
    <g id="Group_219-2" data-name="Group 219" transform="translate(14.709 3.959)">
      <g id="Group_218-2" data-name="Group 218">
        <circle id="Ellipse_8-2" data-name="Ellipse 8" class="cls-1" cx="0.666" cy="0.666" r="0.666"/>
      </g>
    </g>
  </g>
  <g id="instagram-3" data-name="instagram" transform="translate(313 252.419)">
    <g id="Group_215-3" data-name="Group 215">
      <g id="Group_214-3" data-name="Group 214">
        <path id="Path_242-3" data-name="Path 242" class="cls-2" d="M13.75,0H6.25A6.251,6.251,0,0,0,0,6.25v7.5A6.251,6.251,0,0,0,6.25,20h7.5A6.251,6.251,0,0,0,20,13.75V6.25A6.251,6.251,0,0,0,13.75,0Zm4.375,13.75a4.38,4.38,0,0,1-4.375,4.375H6.25A4.38,4.38,0,0,1,1.875,13.75V6.25A4.38,4.38,0,0,1,6.25,1.875h7.5A4.38,4.38,0,0,1,18.125,6.25Z"/>
      </g>
    </g>
    <g id="Group_217-3" data-name="Group 217" transform="translate(5 5)">
      <g id="Group_216-3" data-name="Group 216">
        <path id="Path_243-3" data-name="Path 243" class="cls-2" d="M133,128a5,5,0,1,0,5,5A5,5,0,0,0,133,128Zm0,8.125A3.125,3.125,0,1,1,136.125,133,3.129,3.129,0,0,1,133,136.125Z" transform="translate(-128 -128)"/>
      </g>
    </g>
    <g id="Group_219-3" data-name="Group 219" transform="translate(14.709 3.959)">
      <g id="Group_218-3" data-name="Group 218">
        <circle id="Ellipse_8-3" data-name="Ellipse 8" class="cls-2" cx="0.666" cy="0.666" r="0.666"/>
      </g>
    </g>
  </g>
  <g id="instagram-4" data-name="instagram" transform="translate(354 252.419)">
    <g id="Group_215-4" data-name="Group 215">
      <g id="Group_214-4" data-name="Group 214">
        <path id="Path_242-4" data-name="Path 242" d="M13.75,0H6.25A6.251,6.251,0,0,0,0,6.25v7.5A6.251,6.251,0,0,0,6.25,20h7.5A6.251,6.251,0,0,0,20,13.75V6.25A6.251,6.251,0,0,0,13.75,0Zm4.375,13.75a4.38,4.38,0,0,1-4.375,4.375H6.25A4.38,4.38,0,0,1,1.875,13.75V6.25A4.38,4.38,0,0,1,6.25,1.875h7.5A4.38,4.38,0,0,1,18.125,6.25Z"/>
      </g>
    </g>
    <g id="Group_217-4" data-name="Group 217" transform="translate(5 5)">
      <g id="Group_216-4" data-name="Group 216">
        <path id="Path_243-4" data-name="Path 243" d="M133,128a5,5,0,1,0,5,5A5,5,0,0,0,133,128Zm0,8.125A3.125,3.125,0,1,1,136.125,133,3.129,3.129,0,0,1,133,136.125Z" transform="translate(-128 -128)"/>
      </g>
    </g>
    <g id="Group_219-4" data-name="Group 219" transform="translate(14.709 3.959)">
      <g id="Group_218-4" data-name="Group 218">
        <circle id="Ellipse_8-4" data-name="Ellipse 8" cx="0.666" cy="0.666" r="0.666"/>
      </g>
    </g>
  </g>
  <g id="instagram-5" data-name="instagram" transform="translate(395 252.419)">
    <g id="Group_215-5" data-name="Group 215">
      <g id="Group_214-5" data-name="Group 214">
        <path id="Path_242-5" data-name="Path 242" class="cls-5" d="M13.75,0H6.25A6.251,6.251,0,0,0,0,6.25v7.5A6.251,6.251,0,0,0,6.25,20h7.5A6.251,6.251,0,0,0,20,13.75V6.25A6.251,6.251,0,0,0,13.75,0Zm4.375,13.75a4.38,4.38,0,0,1-4.375,4.375H6.25A4.38,4.38,0,0,1,1.875,13.75V6.25A4.38,4.38,0,0,1,6.25,1.875h7.5A4.38,4.38,0,0,1,18.125,6.25Z"/>
      </g>
    </g>
    <g id="Group_217-5" data-name="Group 217" transform="translate(5 5)">
      <g id="Group_216-5" data-name="Group 216">
        <path id="Path_243-5" data-name="Path 243" class="cls-5" d="M133,128a5,5,0,1,0,5,5A5,5,0,0,0,133,128Zm0,8.125A3.125,3.125,0,1,1,136.125,133,3.129,3.129,0,0,1,133,136.125Z" transform="translate(-128 -128)"/>
      </g>
    </g>
    <g id="Group_219-5" data-name="Group 219" transform="translate(14.709 3.959)">
      <g id="Group_218-5" data-name="Group 218">
        <circle id="Ellipse_8-5" data-name="Ellipse 8" class="cls-5" cx="0.666" cy="0.666" r="0.666"/>
      </g>
    </g>
  </g>
  <path fill-rule="nonzero" d="M 247.351 216.688 C 247.035 214.365 244.989 212.536 242.565 212.181 C 242.155 212.121 240.605 211.904 237.014 211.904 L 236.987 211.904 C 233.395 211.904 232.625 212.121 232.216 212.181 C 229.858 212.527 227.706 214.171 227.183 216.52 C 226.932 217.676 226.905 218.959 226.951 220.136 C 227.018 221.823 227.031 223.508 227.186 225.188 C 227.293 226.305 227.48 227.413 227.745 228.502 C 228.241 230.516 230.251 232.191 232.221 232.875 C 234.331 233.588 236.596 233.705 238.769 233.217 C 239.008 233.161 239.245 233.098 239.478 233.025 C 240.006 232.859 240.624 232.673 241.079 232.347 C 241.085 232.343 241.09 232.336 241.094 232.33 C 241.097 232.323 241.099 232.316 241.1 232.308 L 241.1 230.68 C 241.099 230.664 241.093 230.651 241.081 230.642 C 241.07 230.633 241.054 230.63 241.041 230.633 C 239.648 230.962 238.221 231.127 236.791 231.124 C 234.328 231.124 233.665 229.969 233.476 229.488 C 233.324 229.072 233.227 228.637 233.188 228.197 C 233.187 228.189 233.189 228.181 233.192 228.175 C 233.198 228.161 233.21 228.151 233.226 228.148 C 233.233 228.146 233.24 228.146 233.247 228.148 C 234.617 228.475 236.02 228.64 237.427 228.639 C 237.766 228.639 238.104 228.639 238.443 228.63 C 239.859 228.591 241.351 228.52 242.744 228.25 C 242.779 228.244 242.813 228.238 242.843 228.229 C 245.041 227.811 247.132 226.501 247.345 223.183 C 247.353 223.053 247.373 221.816 247.373 221.68 C 247.374 221.219 247.523 218.412 247.351 216.688 Z M 243.969 224.966 L 241.658 224.966 L 241.658 219.367 C 241.658 218.19 241.161 217.588 240.151 217.588 C 239.041 217.588 238.485 218.299 238.485 219.704 L 238.485 222.768 L 236.188 222.768 L 236.188 219.704 C 236.188 218.299 235.631 217.588 234.52 217.588 C 233.516 217.588 233.015 218.19 233.014 219.367 L 233.014 224.966 L 230.705 224.966 L 230.705 219.197 C 230.705 218.02 231.009 217.083 231.618 216.389 C 232.245 215.697 233.068 215.341 234.091 215.341 C 235.274 215.341 236.168 215.791 236.763 216.69 L 237.338 217.644 L 237.914 216.69 C 238.51 215.791 239.404 215.341 240.585 215.341 C 241.605 215.341 242.428 215.697 243.058 216.389 C 243.667 217.083 243.971 218.019 243.971 219.197 L 243.969 224.966 Z" style="fill: rgb(102, 0, 0);"/>
  <path fill-rule="nonzero" d="M 287.911 216.037 C 287.595 213.714 285.549 211.885 283.125 211.53 C 282.715 211.47 281.165 211.253 277.574 211.253 L 277.547 211.253 C 273.955 211.253 273.185 211.47 272.776 211.53 C 270.418 211.876 268.266 213.52 267.743 215.869 C 267.492 217.025 267.465 218.308 267.511 219.485 C 267.578 221.172 267.591 222.857 267.746 224.537 C 267.853 225.654 268.04 226.762 268.305 227.851 C 268.801 229.865 270.811 231.54 272.781 232.224 C 274.891 232.937 277.156 233.054 279.329 232.566 C 279.568 232.51 279.805 232.447 280.038 232.374 C 280.566 232.208 281.184 232.022 281.639 231.696 C 281.645 231.692 281.65 231.685 281.654 231.679 C 281.657 231.672 281.659 231.665 281.66 231.657 L 281.66 230.029 C 281.659 230.013 281.653 230 281.641 229.991 C 281.63 229.982 281.614 229.979 281.601 229.982 C 280.208 230.311 278.781 230.476 277.351 230.473 C 274.888 230.473 274.225 229.318 274.036 228.837 C 273.884 228.421 273.787 227.986 273.748 227.546 C 273.747 227.538 273.749 227.53 273.752 227.524 C 273.758 227.51 273.77 227.5 273.786 227.497 C 273.793 227.495 273.8 227.495 273.807 227.497 C 275.177 227.824 276.58 227.989 277.987 227.988 C 278.326 227.988 278.664 227.988 279.003 227.979 C 280.419 227.94 281.911 227.869 283.304 227.599 C 283.339 227.593 283.373 227.587 283.403 227.578 C 285.601 227.16 287.692 225.85 287.905 222.532 C 287.913 222.402 287.933 221.165 287.933 221.029 C 287.934 220.568 288.083 217.761 287.911 216.037 Z M 284.529 224.315 L 282.218 224.315 L 282.218 218.716 C 282.218 217.539 281.721 216.937 280.711 216.937 C 279.601 216.937 279.045 217.648 279.045 219.053 L 279.045 222.117 L 276.748 222.117 L 276.748 219.053 C 276.748 217.648 276.191 216.937 275.08 216.937 C 274.076 216.937 273.575 217.539 273.574 218.716 L 273.574 224.315 L 271.265 224.315 L 271.265 218.546 C 271.265 217.369 271.569 216.432 272.178 215.738 C 272.805 215.046 273.628 214.69 274.651 214.69 C 275.834 214.69 276.728 215.14 277.323 216.039 L 277.898 216.993 L 278.474 216.039 C 279.07 215.14 279.964 214.69 281.145 214.69 C 282.165 214.69 282.988 215.046 283.618 215.738 C 284.227 216.432 284.531 217.368 284.531 218.546 L 284.529 224.315 Z" style="fill: rgb(191, 14, 21);"/>
  <path fill-rule="nonzero" d="M 331.749 215.571 C 331.433 213.248 329.387 211.419 326.963 211.064 C 326.553 211.004 325.003 210.787 321.412 210.787 L 321.385 210.787 C 317.793 210.787 317.023 211.004 316.614 211.064 C 314.256 211.41 312.104 213.054 311.581 215.403 C 311.33 216.559 311.303 217.842 311.349 219.019 C 311.416 220.706 311.429 222.391 311.584 224.071 C 311.691 225.188 311.878 226.296 312.143 227.385 C 312.639 229.399 314.649 231.074 316.619 231.758 C 318.729 232.471 320.994 232.588 323.167 232.1 C 323.406 232.044 323.643 231.981 323.876 231.908 C 324.404 231.742 325.022 231.556 325.477 231.23 C 325.483 231.226 325.488 231.219 325.492 231.213 C 325.495 231.206 325.497 231.199 325.498 231.191 L 325.498 229.563 C 325.497 229.547 325.491 229.534 325.479 229.525 C 325.468 229.516 325.452 229.513 325.439 229.516 C 324.046 229.845 322.619 230.01 321.189 230.007 C 318.726 230.007 318.063 228.852 317.874 228.371 C 317.722 227.955 317.625 227.52 317.586 227.08 C 317.585 227.072 317.587 227.064 317.59 227.058 C 317.596 227.044 317.608 227.034 317.624 227.031 C 317.631 227.029 317.638 227.029 317.645 227.031 C 319.015 227.358 320.418 227.523 321.825 227.522 C 322.164 227.522 322.502 227.522 322.841 227.513 C 324.257 227.474 325.749 227.403 327.142 227.133 C 327.177 227.127 327.211 227.121 327.241 227.112 C 329.439 226.694 331.53 225.384 331.743 222.066 C 331.751 221.936 331.771 220.699 331.771 220.563 C 331.772 220.102 331.921 217.295 331.749 215.571 Z M 328.367 223.849 L 326.056 223.849 L 326.056 218.25 C 326.056 217.073 325.559 216.471 324.549 216.471 C 323.439 216.471 322.883 217.182 322.883 218.587 L 322.883 221.651 L 320.586 221.651 L 320.586 218.587 C 320.586 217.182 320.029 216.471 318.918 216.471 C 317.914 216.471 317.413 217.073 317.412 218.25 L 317.412 223.849 L 315.103 223.849 L 315.103 218.08 C 315.103 216.903 315.407 215.966 316.016 215.272 C 316.643 214.58 317.466 214.224 318.489 214.224 C 319.672 214.224 320.566 214.674 321.161 215.573 L 321.736 216.527 L 322.312 215.573 C 322.908 214.674 323.802 214.224 324.983 214.224 C 326.003 214.224 326.826 214.58 327.456 215.272 C 328.065 215.966 328.369 216.902 328.369 218.08 L 328.367 223.849 Z" style="fill: rgb(143, 143, 143);"/>
  <path fill-rule="nonzero" d="M 372.615 215.663 C 372.299 213.34 370.253 211.511 367.829 211.156 C 367.419 211.096 365.869 210.879 362.278 210.879 L 362.251 210.879 C 358.659 210.879 357.889 211.096 357.48 211.156 C 355.122 211.502 352.97 213.146 352.447 215.495 C 352.196 216.651 352.169 217.934 352.215 219.111 C 352.282 220.798 352.295 222.483 352.45 224.163 C 352.557 225.28 352.744 226.388 353.009 227.477 C 353.505 229.491 355.515 231.166 357.485 231.85 C 359.595 232.563 361.86 232.68 364.033 232.192 C 364.272 232.136 364.509 232.073 364.742 232 C 365.27 231.834 365.888 231.648 366.343 231.322 C 366.349 231.318 366.354 231.311 366.358 231.305 C 366.361 231.298 366.363 231.291 366.364 231.283 L 366.364 229.655 C 366.363 229.639 366.357 229.626 366.345 229.617 C 366.334 229.608 366.318 229.605 366.305 229.608 C 364.912 229.937 363.485 230.102 362.055 230.099 C 359.592 230.099 358.929 228.944 358.74 228.463 C 358.588 228.047 358.491 227.612 358.452 227.172 C 358.451 227.164 358.453 227.156 358.456 227.15 C 358.462 227.136 358.474 227.126 358.49 227.123 C 358.497 227.121 358.504 227.121 358.511 227.123 C 359.881 227.45 361.284 227.615 362.691 227.614 C 363.03 227.614 363.368 227.614 363.707 227.605 C 365.123 227.566 366.615 227.495 368.008 227.225 C 368.043 227.219 368.077 227.213 368.107 227.204 C 370.305 226.786 372.396 225.476 372.609 222.158 C 372.617 222.028 372.637 220.791 372.637 220.655 C 372.638 220.194 372.787 217.387 372.615 215.663 Z M 369.233 223.941 L 366.922 223.941 L 366.922 218.342 C 366.922 217.165 366.425 216.563 365.415 216.563 C 364.305 216.563 363.749 217.274 363.749 218.679 L 363.749 221.743 L 361.452 221.743 L 361.452 218.679 C 361.452 217.274 360.895 216.563 359.784 216.563 C 358.78 216.563 358.279 217.165 358.278 218.342 L 358.278 223.941 L 355.969 223.941 L 355.969 218.172 C 355.969 216.995 356.273 216.058 356.882 215.364 C 357.509 214.672 358.332 214.316 359.355 214.316 C 360.538 214.316 361.432 214.766 362.027 215.665 L 362.602 216.619 L 363.178 215.665 C 363.774 214.766 364.668 214.316 365.849 214.316 C 366.869 214.316 367.692 214.672 368.322 215.364 C 368.931 216.058 369.235 216.994 369.235 218.172 L 369.233 223.941 Z" style="fill: rgb(255, 255, 255);"/>
  <path fill-rule="nonzero" d="M 415.767 215.235 C 415.451 212.912 413.405 211.083 410.981 210.728 C 410.571 210.668 409.021 210.451 405.43 210.451 L 405.403 210.451 C 401.811 210.451 401.041 210.668 400.632 210.728 C 398.274 211.074 396.122 212.718 395.599 215.067 C 395.348 216.223 395.321 217.506 395.367 218.683 C 395.434 220.37 395.447 222.055 395.602 223.735 C 395.709 224.852 395.896 225.96 396.161 227.049 C 396.657 229.063 398.667 230.738 400.637 231.422 C 402.747 232.135 405.012 232.252 407.185 231.764 C 407.424 231.708 407.661 231.645 407.894 231.572 C 408.422 231.406 409.04 231.22 409.495 230.894 C 409.501 230.89 409.506 230.883 409.51 230.877 C 409.513 230.87 409.515 230.863 409.516 230.855 L 409.516 229.227 C 409.515 229.211 409.509 229.198 409.497 229.189 C 409.486 229.18 409.47 229.177 409.457 229.18 C 408.064 229.509 406.637 229.674 405.207 229.671 C 402.744 229.671 402.081 228.516 401.892 228.035 C 401.74 227.619 401.643 227.184 401.604 226.744 C 401.603 226.736 401.605 226.728 401.608 226.722 C 401.614 226.708 401.626 226.698 401.642 226.695 C 401.649 226.693 401.656 226.693 401.663 226.695 C 403.033 227.022 404.436 227.187 405.843 227.186 C 406.182 227.186 406.52 227.186 406.859 227.177 C 408.275 227.138 409.767 227.067 411.16 226.797 C 411.195 226.791 411.229 226.785 411.259 226.776 C 413.457 226.358 415.548 225.048 415.761 221.73 C 415.769 221.6 415.789 220.363 415.789 220.227 C 415.79 219.766 415.939 216.959 415.767 215.235 Z M 412.385 223.513 L 410.074 223.513 L 410.074 217.914 C 410.074 216.737 409.577 216.135 408.567 216.135 C 407.457 216.135 406.901 216.846 406.901 218.251 L 406.901 221.315 L 404.604 221.315 L 404.604 218.251 C 404.604 216.846 404.047 216.135 402.936 216.135 C 401.932 216.135 401.431 216.737 401.43 217.914 L 401.43 223.513 L 399.121 223.513 L 399.121 217.744 C 399.121 216.567 399.425 215.63 400.034 214.936 C 400.661 214.244 401.484 213.888 402.507 213.888 C 403.69 213.888 404.584 214.338 405.179 215.237 L 405.754 216.191 L 406.33 215.237 C 406.926 214.338 407.82 213.888 409.001 213.888 C 410.021 213.888 410.844 214.244 411.474 214.936 C 412.083 215.63 412.387 216.566 412.387 217.744 L 412.385 223.513 Z" style="fill: rgb(17, 17, 17);"/>
</svg>